<?xml version="1.0" encoding="UTF-8" standalone="no"?>
<!-- Created with Inkscape (http://www.inkscape.org/) -->

<svg
   width="239.27605mm"
   height="319.65778mm"
   viewBox="0 0 239.27605 319.65777"
   version="1.1"
   id="svg5"
   inkscape:version="1.2 (56b05e47e7, 2022-06-09, custom)"
   sodipodi:docname="std-label.svg"
   inkscape:export-filename="/home/federico/Escritorio/Limonero/prueba1.png"
   inkscape:export-xdpi="150.0956"
   inkscape:export-ydpi="150.0956"
   xmlns:inkscape="http://www.inkscape.org/namespaces/inkscape"
   xmlns:sodipodi="http://sodipodi.sourceforge.net/DTD/sodipodi-0.dtd"
   xmlns="http://www.w3.org/2000/svg"
   xmlns:svg="http://www.w3.org/2000/svg">
  <sodipodi:namedview
     id="namedview7"
     pagecolor="#505050"
     bordercolor="#eeeeee"
     borderopacity="1"
     inkscape:pageshadow="0"
     inkscape:pageopacity="0"
     inkscape:pagecheckerboard="0"
     inkscape:document-units="px"
     showgrid="false"
     showborder="false"
     inkscape:zoom="0.1767767"
     inkscape:cx="989.94947"
     inkscape:cy="1004.0916"
     inkscape:window-width="1366"
     inkscape:window-height="704"
     inkscape:window-x="0"
     inkscape:window-y="27"
     inkscape:window-maximized="1"
     inkscape:current-layer="svg5"
     inkscape:snap-midpoints="false"
     showguides="true"
     inkscape:guide-bbox="true"
     inkscape:showpageshadow="0"
     inkscape:deskcolor="#505050">
    <inkscape:grid
       type="xygrid"
       id="grid999"
       originx="14.638023"
       originy="-39.395368" />
  </sodipodi:namedview>
  <defs
     id="defs2">
    <linearGradient
       id="linearGradient11707"
       inkscape:swatch="solid">
      <stop
         style="stop-color:#000000;stop-opacity:1;"
         offset="0"
         id="stop11705" />
    </linearGradient>
  </defs>
  <g
     inkscape:groupmode="layer"
     id="layer3"
     inkscape:label="design"
     style="display:inline"
     transform="translate(14.638023,-39.395371)" />
  <g
     id="layer2"
     inkscape:label="lemon"
     style="display:inline"
     inkscape:groupmode="layer"
     transform="translate(14.638023,-39.395371)" />
  <g
     inkscape:label="text"
     inkscape:groupmode="layer"
     id="layer1"
     style="display:inline"
     transform="translate(14.638023,-39.395371)" />
  <path
     style="color:#000000;fill:#000000;-inkscape-stroke:none"
     d="M 31.892578,0 V 0.66210937 1.984375 C 31.892421,18.525837 18.52774,31.892421 1.9863281,31.892578 H 0 V 180.92383 h 1.9863281 c 16.5414609,1.5e-4 29.9060909,13.36674 29.9062499,29.9082 v 1.98438 H 207.38281 v -1.98438 c 1.7e-4,-16.54147 13.36675,-29.90805 29.90821,-29.9082 h 1.98437 V 31.892578 h -1.98437 C 220.74961,31.892424 207.38298,18.52584 207.38281,1.984375 V 0 Z m 1.322266,1.3222656 H 206.06055 V 1.984375 c 1.7e-4,17.254917 13.9755,31.230308 31.23047,31.230469 h 0.6621 V 179.60156 h -0.6621 c -17.25491,1.7e-4 -31.2303,13.97555 -31.23047,31.23047 v 0.66211 H 33.214844 v -0.66211 C 33.214677,193.57712 19.241243,179.60173 1.9863281,179.60156 H 1.3222656 V 33.214844 H 1.9863281 C 19.241295,33.214679 33.214679,19.23929 33.214844,1.984375 Z M 34.431641,2.6464844 34.40625,3.28125 C 33.726121,20.196441 20.196696,33.725151 3.28125,34.404297 l -0.6347656,0.02539 V 178.38672 l 0.6347656,0.0254 c 16.916,0.67917 30.445637,14.20714 31.125,31.12305 l 0.02539,0.63476 H 204.8457 l 0.0254,-0.63476 c 0.67938,-16.91595 14.20706,-30.44388 31.12305,-31.12305 l 0.63477,-0.0254 V 34.429687 l -0.63477,-0.02539 C 219.07871,33.725155 205.55124,20.196476 204.87109,3.28125 L 204.8457,2.6464844 Z M 35.642578,3.96875 H 203.63477 c 1.01131,17.070146 14.60146,30.66152 31.67187,31.671875 V 177.17578 c -17.07089,1.01036 -30.66132,14.60104 -31.67187,31.67188 H 35.642578 C 34.631983,191.77677 21.039694,178.18614 3.96875,177.17578 V 35.640625 C 21.039215,34.630268 34.631231,21.038956 35.642578,3.96875 Z"
     id="rect16572" />
  <path
     id="path20"
     style="display:inline;fill:#2e2e2e;fill-opacity:1;fill-rule:nonzero;stroke:none;stroke-width:0.0576219"
     d="m 51.254393,34.762377 v 28.396712 h 5.104081 l 0.100252,0.0305 c 0.209388,0.0301 0.594072,0.0476 1.106909,0.33487 0.313633,0.17606 0.631239,0.46953 0.818555,0.88883 0.181377,0.40564 0.192046,0.80703 0.153996,1.13688 v 0.002 0.002 c -0.03985,0.33873 -0.123773,0.79459 -0.486275,1.2268 -0.288684,0.34419 -0.682378,0.49419 -1.083655,0.56069 -0.0092,0.009 -0.04373,0.0525 -0.05891,0.0682 v 0.0646 l -0.29869,0.30075 c -0.645106,0.83991 -1.005212,1.53816 -1.16427,2.05259 v 26.4728 h 10.191626 c 0.04258,-0.0213 0.0968,-0.0519 0.136942,-0.0723 0.14278,-0.0727 0.294232,-0.17671 0.218592,-0.11731 l 0.0036,-0.002 0.02739,-0.0196 c 0.250838,-0.1858 0.385628,-0.32556 0.429948,-0.37466 0.07148,-0.44605 0.242196,-0.86652 0.576192,-1.1467 0.4243,-0.3559 0.893493,-0.46511 1.286743,-0.48421 h 0.0021 c 0.403486,-0.0192 0.825002,0.0542 1.23455,0.27544 0.427906,0.23115 0.867141,0.67947 1.011825,1.30638 l 0.03307,0.14676 v 0.0274 l 0.128675,0.66197 -0.928626,5.306661 c 0.0011,-0.001 0.002,-0.003 0.0031,-0.004 0.463586,-0.60846 1.298573,-0.93247 1.90531,-0.971 -0.515478,0.0196 -0.303197,0.14307 0.04393,-0.26716 l 0.01188,-0.0155 0.01137,-0.0139 c 1.148398,-1.306811 1.441773,-2.241011 1.441773,-4.593521 v -25.98312 c -0.170203,-0.47614 -0.486585,-1.1131 -1.089856,-1.91823 -0.149187,-0.18924 -0.239463,-0.27099 -0.242363,-0.27699 -0.531939,-0.16035 -1.029831,-0.41872 -1.292944,-0.76997 -0.408894,-0.54588 -0.506815,-1.05296 -0.521415,-1.53479 -0.0146,-0.48183 0.06455,-0.96929 0.366902,-1.49242 0.302362,-0.52313 0.962924,-1.08756 1.746147,-1.21285 l -0.07596,0.014 0.496093,-0.0997 0.19327,-0.0393 h 4.343921 z m 136.737907,10e-4 -35.60041,38.325309 v 22.8539 c 0,2.3777 0.2537,3.29251 1.40611,4.581644 l 0.0176,0.0196 0.0176,0.0217 c 0.39247,0.46383 0.57669,0.26355 -0.10128,0.26355 0.61186,0 1.48124,0.30016 1.98644,0.9064 0.28351,0.34021 0.44015,0.69295 0.52968,1.03095 l 3.51555,-3.784274 c -3.55046,-4.0369 -5.38727,-8.9324 -5.38727,-14.37587 0,-6.03455 2.27278,-11.40916 6.65231,-15.68121 4.37701,-4.26967 9.85454,-6.49263 16.01969,-6.49263 3.97625,0 7.65745,0.92744 10.94404,2.72955 z m -115.717485,29.221989 -0.0801,0.0119 c 0.05098,-0.009 0.0833,0.0164 0.132808,0.0114 -0.01882,10e-4 -0.03439,-0.0252 -0.05271,-0.0233 z m 104.772935,8.31836 c -2.043,0 -3.6449,0.90963 -5.31027,3.33209 v 0.002 l -0.002,0.002 c -1.68308,2.43823 -2.52543,5.3645 -2.52543,8.99221 0,3.62777 0.8444,6.55275 2.52129,8.9607 l 0.004,0.006 0.002,0.004 c 1.66224,2.4179 3.25575,3.30833 5.31078,3.30833 2.02404,0 3.62264,-0.89043 5.28495,-3.30833 l 0.004,-0.004 0.004,-0.006 c 1.67697,-2.40795 2.52181,-5.33293 2.52181,-8.9607 0,-3.62771 -0.84441,-6.55398 -2.52749,-8.99221 v -0.002 l -0.002,-0.002 c -1.66543,-2.42246 -3.27305,-3.33209 -5.28495,-3.33209 z m -90.884377,0.0398 v 23.59907 c 0,2.3651 0.270067,3.28471 1.429887,4.582154 l 0.03307,0.0367 0.03101,0.0393 c 0.158364,0.19606 0.253254,0.25278 0.273368,0.26665 0.552554,0.0977 1.191615,0.38814 1.597835,0.88986 0.510206,0.63026 0.603581,1.30812 0.603581,1.85157 0,0.66371 -0.262893,1.50317 -0.845426,2.06241 -0.582541,0.55924 -1.295418,0.75707 -1.890841,0.80667 l 0.04858,-0.004 -0.893486,0.0966 4.226616,4.55011 h 2.493388 21.750095 l 1.03508,9.65987 -0.10955,0.76585 c -0.0856,0.59926 -0.52576,1.41368 -1.18753,1.79679 -0.63766,0.36914 -1.20904,0.35362 -1.65416,0.30282 -0.41762,-0.028 -0.93735,-0.0745 -1.52756,-0.56637 -0.33802,-0.28169 -0.55163,-0.72115 -0.67954,-1.16996 -0.0275,-0.0304 -0.0204,-0.0268 -0.0682,-0.0723 -0.0866,-0.0825 -0.19617,-0.15545 -0.31058,-0.24805 h -10.01748 l 3.41219,3.67368 h 5.2e-4 l 1.04955,1.12964 4.97695,0.0129 0.63356,6.02651 9.05887,9.75186 0.94826,-1.02061 v -22.7304 c -0.16999,-0.45989 -0.49317,-1.10244 -1.09399,-1.92753 -0.14377,-0.18238 -0.21267,-0.24798 -0.23047,-0.26768 -0.51699,-0.15348 -0.99493,-0.40092 -1.24799,-0.72864 -0.4293,-0.55598 -0.51978,-1.05742 -0.53898,-1.53324 -0.0192,-0.47582 0.0496,-0.95726 0.34364,-1.48621 0.29404,-0.52896 0.96209,-1.11671 1.7601,-1.24437 l -0.0765,0.0139 0.4961,-0.0997 a 1.9845734,1.9845734 0 0 1 0.3886,-0.0393 h 6.34794 l 11.33367,-0.0232 5.2e-4,-5.2e-4 a 1.9845734,1.9845734 0 0 1 0.0584,0.0258 1.9845734,1.9845734 0 0 1 0.004,0 c 2.76284,0.077 4.92941,0.35228 7.36906,1.4335 a 1.9845734,1.9845734 0 0 1 0.0139,0.008 c 0.27874,0.12631 0.54663,0.26784 0.8108,0.41445 0.17508,-0.10188 0.34852,-0.19978 0.5209,-0.29352 -0.69277,-0.58242 -1.70773,-1.48595 -2.57452,-2.47996 -0.53683,-0.61557 -1.0355,-1.20676 -1.35909,-2.12286 -0.13738,-0.38892 -0.25846,-0.8962 -0.14934,-1.49655 h -3.59513 l -0.96842,-0.10542 c -0.59937,-0.0479 -1.33667,-0.23906 -1.93373,-0.83613 -0.40466,-0.40465 -0.58481,-0.92332 -0.68161,-1.42782 -0.007,0.0279 -0.007,0.0689 -0.014,0.0956 -0.24549,0.98195 -1.2519,1.95018 -2.20503,2.15439 l -0.0289,0.006 -0.75241,0.13694 h -11.32437 l -1.63143,1.75648 -2.58795,-2.78588 c -0.47619,0.52903 -1.17793,0.83046 -1.75493,0.89452 l -0.77308,0.11111 H 104.2553 l -0.83406,-0.11886 0.0724,0.008 c -0.61411,-0.0646 -1.4108,-0.40156 -1.88877,-1.02164 -0.47798,-0.62009 -0.58188,-1.30038 -0.58188,-1.84382 0,-0.45317 0.009,-0.94916 0.37311,-1.58595 0.23617,-0.41321 0.73157,-0.72799 1.24592,-0.94309 -0.0179,0.0155 0.0953,-0.098 0.23616,-0.31058 0.84862,-1.311444 1.12138,-2.584194 1.12138,-4.826064 v -4.39766 z m 53.255657,14.71073 -1.09709,1.18132 -4.48086,11.994624 c 0.0323,0.0947 0.0988,0.61126 0.2558,1.05316 0.0436,0.12274 0.0536,0.12814 0.0935,0.21084 0.44919,0.16787 0.88507,0.45381 1.13895,0.87695 0.19187,0.31975 0.22747,0.58398 0.26717,0.84749 0.0341,-0.44116 0.0459,-0.905 0.43356,-1.41386 0.49491,-0.64957 1.41386,-0.97462 2.02572,-0.97462 -0.678,0 -0.44982,0.17714 -0.0765,-0.26407 l 0.006,-0.01 0.008,-0.008 c 1.15696,-1.336494 1.42575,-2.240824 1.42575,-4.605924 z m -73.005873,9.13071 c -0.0015,0.0703 -0.03265,0.0236 -0.01757,0.1173 l 0.0062,0.0289 c -0.0093,-0.0502 0.01637,-0.096 0.01137,-0.14624 z m 66.747343,5.132504 c -0.0349,-0.004 -0.0731,-0.003 -0.11627,0.003 l -0.0527,0.008 c 0.11575,-0.0193 0.30572,0.0521 0.45527,0.0625 -0.10445,-0.0178 -0.18149,-0.062 -0.28629,-0.0729 z m 2.31717,2.20141 -0.002,0.0899 c 0,-0.009 0.0103,-0.0231 0.0103,-0.0331 0,-0.0172 -0.009,-0.0399 -0.008,-0.0569 z m 29.7124,0.0253 v 2.09341 c 0.001,6e-5 0.003,-6e-5 0.005,0 1.76325,0.0748 2.80241,0.3421 2.80241,0.3421 l 2.54714,0.67747 -0.36432,0.60617 c 1.63378,0.0842 3.18787,0.29701 4.66896,0.6382 5.18786,1.19514 9.33714,3.92455 13.14339,7.47603 v -11.31714 c -3.28611,1.79504 -6.96662,2.7218 -10.94404,2.7218 -4.34334,0 -8.34302,-1.10345 -11.85819,-3.23804 z m -95.840141,0.8294 -0.294039,1.68052 H 51.254393 v 5.06636 h 6.148978 c 1.219418,0 2.737303,0.57914 3.394625,1.83399 l 0.0098,0.0176 9.220626,18.56476 v -11.96309 c -0.205988,-0.8256 -0.595647,-1.64349 -1.226282,-2.43138 -0.346266,-0.35728 -0.560376,-0.24236 0.08578,-0.24236 -0.653184,0 -1.581185,-0.37629 -2.050521,-1.02164 -0.469337,-0.64536 -0.529684,-1.26792 -0.529684,-1.78129 0,-0.63842 0.247043,-1.45936 0.805119,-2.01745 0.558083,-0.55809 1.245312,-0.77137 1.825729,-0.84387 l 0.01757,-0.002 1.039213,-0.11317 h 4.080888 v -4.53564 h -1.116211 l -0.968417,-0.10542 c -0.59936,-0.0479 -1.332055,-0.24449 -1.921846,-0.82217 -0.371183,-0.36361 -0.600628,-0.82983 -0.719853,-1.28365 z m 50.522491,11.93209 c 0.15385,0.0307 0.14677,0.10875 0.36536,0.0724 l 0.0956,-0.0196 c -0.14462,0.0315 -0.30573,-0.0467 -0.46096,-0.0527 z m -9.08781,4.58422 -0.0119,0.0801 c -0.0237,0.18963 0.0381,0.10601 0.047,0.23202 -2e-4,-0.0996 -0.0494,-0.22622 -0.0351,-0.31212 z m 22.72264,0.79685 0.0124,5.54746 1.83142,-1.97145 2.92643,-3.1502 c -0.97943,-0.27137 -2.16523,-0.42581 -3.43441,-0.42581 z m -77.655722,2.35903 -0.140043,0.59376 c 0.05895,0.0479 0.119444,0.0989 0.164331,0.13694 l 0.21084,-0.57671 c -0.08039,-0.0582 -0.159081,-0.11045 -0.235128,-0.15399 z m -35.077962,5.98516 c 2.541723,8.14523 5.934244,15.86883 10.050549,23.06009 l 12.025623,-0.002 c -0.123855,-0.35108 -0.180351,-0.7073 -0.180351,-1.01493 0,-0.51338 0.05958,-1.15549 0.554488,-1.80506 0.49491,-0.64957 1.413344,-0.97255 2.0252,-0.97255 -0.67797,0 -0.449281,0.17553 -0.07597,-0.26561 l 0.0057,-0.008 0.0083,-0.0103 c 1.170748,-1.35242 1.451074,-2.22365 1.451074,-4.60334 v -14.37845 z m 175.672994,10e-4 c 0.3722,1.9975 0.5303,4.02889 0.50178,6.03943 -0.0875,6.16638 -1.8651,12.22487 -4.76818,17.01653 l 16.27445,-10e-4 c 4.11514,-7.18992 7.5068,-14.9114 10.04797,-23.05493 z m -139.351697,4.59249 -0.01344,12.84573 c 0.209364,0.53526 0.476399,1.03811 0.906405,1.51773 l 0.01912,0.0212 0.01757,0.0217 c 0.392471,0.46377 0.576687,0.26561 -0.101286,0.26561 0.65319,0 1.518521,0.3378 2.001945,0.93173 0.48343,0.59392 0.599698,1.22529 0.624768,1.75183 l 0.0041,0.047 v 0.047 c 0,0.31756 -0.05968,0.6701 -0.181902,1.01389 h 2.297018 3.6189 c -0.12301,-0.21431 -0.242513,-0.43868 -0.374654,-0.69195 l -0.0098,-0.0176 z" />
  <path
     style="fill:#5b9a05;stroke-width:0.221579px"
     d="m 152.18306,113.22403 c 0,0 1.02306,-3.44249 6.38002,-4.86113 5.35694,-1.41863 8.92335,-0.4669 8.92335,-0.4669 0,0 -2.63491,4.38671 -6.30529,5.90251 -3.67037,1.51581 -8.99808,-0.57448 -8.99808,-0.57448 z"
     id="path56863"
     sodipodi:nodetypes="csczc"
     inkscape:transform-center-x="-9.6463675"
     inkscape:transform-center-y="-0.46898911"
     inkscape:label="back-leaf" />
  <g
     id="path9342"
     inkscape:label="body"
     transform="translate(14.638023,-39.395371)">
    <path
       style="color:#000000;fill:#fed900;stroke-width:1.46556;-inkscape-stroke:none"
       d="m 137.54503,152.6194 c 19.18375,-6.59536 27.58305,-2.63717 36.14207,6.30281 8.55903,8.93998 6.84819,24.09242 1.02848,32.95017 -8.38858,3.0748 -20.47575,7.27459 -33.15699,-5.34265 -12.68122,-12.61723 -4.01356,-33.91033 -4.01356,-33.91033 z"
       id="path788" />
    <path
       style="color:#000000;fill:#fe9809;-inkscape-stroke:none"
       d="m 155.18945,148.62695 c -4.85957,-0.20702 -10.63362,0.80657 -17.88281,3.29883 l -0.31445,0.10938 -0.125,0.30859 c 0,0 -2.20888,5.41673 -2.80078,12.4375 -0.59191,7.02077 0.42872,15.75472 6.97461,22.26758 6.45195,6.41939 12.86388,8.62243 18.6875,8.76953 5.82361,0.1471 11.03843,-1.71838 15.23828,-3.25781 l 0.22851,-0.084 0.13281,-0.20117 c 2.99706,-4.56159 4.91069,-10.67712 4.99805,-16.83594 0.0874,-6.15881 -1.66998,-12.38645 -6.10937,-17.02343 -4.32495,-4.51746 -8.701,-7.86088 -14.45118,-9.18555 -1.43754,-0.33117 -2.95631,-0.53451 -4.57617,-0.60352 z m -0.0703,1.46289 c 1.53875,0.0651 2.97012,0.25822 4.31641,0.56836 5.38515,1.24058 9.48859,4.34897 13.72265,8.77149 4.11963,4.30299 5.78635,10.12145 5.70313,15.98828 -0.082,5.77909 -1.89092,11.56526 -4.64258,15.84375 -4.14324,1.51566 -9.06327,3.22794 -14.45313,3.0918 -5.48741,-0.13862 -11.46017,-2.14592 -17.68945,-8.34375 -6.13532,-6.10437 -7.12044,-14.3254 -6.54883,-21.10547 0.5455,-6.47022 2.41568,-11.24265 2.59375,-11.69141 6.96585,-2.36304 12.46006,-3.31492 16.99805,-3.12305 z"
       id="path790" />
  </g>
  <g
     id="g61187"
     transform="matrix(0.75549472,-0.36134987,0.36134987,0.75549472,-506.80897,294.25559)"
     inkscape:label="front-leaf">
    <g
       id="path15002"
       inkscape:label="path15002">
      <path
         style="color:#000000;fill:#86d231;stroke-width:1.25;stroke-linecap:round;stroke-linejoin:round;-inkscape-stroke:none"
         d="m 803.14242,144.51967 c 0,0 -3.003,9.48646 -6.84495,13.59961 -3.84196,4.11315 -16.31925,8.29218 -16.31925,8.29218 0,0 0.53664,-10.6688 6.65809,-17.41509 6.12144,-6.74627 16.50611,-4.4767 16.50611,-4.4767 z"
         id="path794" />
      <path
         style="color:#000000;fill:#5b9a05;stroke-linecap:round;stroke-linejoin:round;-inkscape-stroke:none"
         d="m 797.12695,143.5957 c -3.47501,0.28452 -7.75078,1.45126 -10.95312,4.98047 -6.32958,6.97567 -6.82031,17.80469 -6.82031,17.80469 a 0.6250625,0.6250625 0 0 0 0.82226,0.62305 c 0,0 3.14258,-1.05229 6.76953,-2.62305 3.62695,-1.57076 7.72931,-3.60793 9.8086,-5.83399 2.02913,-2.17237 3.73892,-5.61031 4.98242,-8.52539 1.2435,-2.91507 2.00195,-5.3125 2.00195,-5.3125 a 0.6250625,0.6250625 0 0 0 -0.46289,-0.80078 c 0,0 -2.67342,-0.59702 -6.14844,-0.3125 z m 0.11719,1.26563 c 2.53945,-0.20898 4.24686,0.0327 5.03906,0.16601 -0.16825,0.51594 -0.64219,2.03055 -1.69726,4.50391 -1.21849,2.85644 -2.93329,6.22134 -4.7461,8.16211 -1.76266,1.88709 -5.81844,3.99397 -9.39062,5.54101 -3.03982,1.31649 -4.93985,1.94605 -5.67578,2.19922 0.11909,-1.5109 0.90471,-10.04273 6.32617,-16.01757 2.91909,-3.21705 6.89685,-4.28743 10.14453,-4.55469 z"
         id="path796" />
    </g>
    <path
       style="color:#000000;fill:#5b9a05;-inkscape-stroke:none"
       d="m 802.94727,144.05859 c -16.3972,6.9685 -19.35391,14.69776 -23.40821,22.11328 l 0.87696,0.47852 c 4.09771,-7.49494 6.72636,-14.78713 22.92187,-21.66992 z"
       id="path21781" />
  </g>
  <path
     id="ellipse82588"
     style="fill:#5b3705;stroke-width:1.45328;stroke-linecap:round;stroke-linejoin:round"
     d="m 149.60194,110.31865 c 1.19648,1.36659 3.9722,2.61247 3.51221,3.44964 -0.45995,0.83718 -3.44141,-1.33544 -4.58419,-2.26178 -1.14275,-0.92638 -5.09593,-4.34792 -3.41628,-5.02939 1.67964,-0.68148 3.29187,2.47482 4.48826,3.84153 z"
     sodipodi:nodetypes="zzzzz"
     inkscape:label="stem" />
  <path
     d="m 54.810983,97.753899 c -0.34727,-0.0992 -0.62012,-0.27285 -0.81856,-0.47129 v -27.75645 c 0.22325,-0.79375 0.71934,-1.68671 1.48829,-2.6789 0.47128,-0.64492 0.84335,-0.94258 1.11621,-0.89297 0.29765,0.0496 0.44648,-0.14883 0.49609,-0.57051 0.0744,-0.64492 -0.39688,-0.66973 -0.94258,-0.76894 h -13.36972 l -0.4961,0.0992 c -0.62012,0.0992 -0.5457,1.31465 0.0496,1.24024 0.29766,-0.0496 0.66973,0.24805 1.16582,0.89297 0.76895,1.04179 1.26504,1.93476 1.48828,2.6789 v 28.50059 c -0.0992,1.41387 -0.57051,2.629301 -1.41386,3.671091 -0.54571,0.66973 -1.0418,1.017 -1.43868,1.017 -0.39687,0 -0.59531,0.27285 -0.59531,0.81855 0,0.57051 0.29766,0.89297 0.91777,0.96738 l 0.91778,0.0992 h 24.45742 l 1.41387,-8.086331 -0.0992,-0.52089 c -0.14883,-0.64493 -1.43867,-0.59532 -1.31465,0.0744 0.0496,0.29766 -0.27285,0.69453 -0.94258,1.19062 -0.22324,0.17364 -0.69453,0.37207 -0.89297,0.4961 z m -9.10332,-30.23692 c -0.14883,-0.24804 -0.0744,-0.37207 0.22324,-0.34726 0.39688,0.12402 0.96738,1.46348 1.01699,1.98437 v 30.50977 c -0.19843,0.744141 -0.39687,1.116211 -0.62011,1.141011 -0.22325,0.0248 -0.24805,-0.34726 -0.0744,-1.141011 v -30.36094 c -0.17363,-1.0914 -0.14883,-0.84336 -0.5457,-1.78594 z"
     style="font-size:50.8px;line-height:0.85;font-family:'Festival Budaya XXXI';-inkscape-font-specification:'Festival Budaya XXXI';text-align:center;text-anchor:middle;stroke-width:0.264583"
     id="path948"
     inkscape:label="l" />
  <path
     d="m 72.992813,64.614839 -0.49609,0.0992 c -0.62012,0.0992 -0.57051,1.31465 0.0248,1.24024 0.29766,-0.0496 0.69454,0.24805 1.19063,0.89297 0.74414,0.99219 1.24023,1.88515 1.48828,2.6789 v 26.417 c 0,2.60449 -0.49609,4.266401 -1.93476,5.903511 -0.54571,0.64492 -1.0418,0.96738 -1.43868,0.96738 -0.39687,0 -0.59531,0.24805 -0.59531,0.79375 0,0.54571 0.29766,0.84336 0.91777,0.89297 l 0.91778,0.0992 h 13.2457 l 0.91777,-0.0992 c 0.59532,-0.0496 0.91778,-0.34726 0.91778,-0.89297 0,-0.5457 -0.22324,-0.79375 -0.62012,-0.79375 -0.42168,0 -0.89297,-0.32246 -1.41387,-0.96738 -1.46347,-1.63711 -1.93476,-3.299021 -1.93476,-5.903511 v -26.417 c 0.22324,-0.79375 0.71933,-1.68671 1.48828,-2.6789 0.49609,-0.64492 0.86816,-0.94258 1.16582,-0.89297 0.27285,0.0496 0.42168,-0.14883 0.47129,-0.57051 0.0496,-0.64492 -0.42168,-0.66973 -0.94258,-0.76894 z m 2.87735,2.57968 c -0.17364,-0.24804 -0.0992,-0.37207 0.22324,-0.32246 0.39687,0.12403 0.96738,1.46348 1.01699,1.98438 v 30.50976 c -0.19844,0.744141 -0.39687,1.116211 -0.62012,1.141021 -0.22324,0.0248 -0.24804,-0.34727 -0.0744,-1.141021 v -30.36093 c -0.17363,-1.09141 -0.14883,-0.86817 -0.5457,-1.81075 z"
     style="font-size:50.8px;line-height:0.85;font-family:'Festival Budaya XXXI';-inkscape-font-specification:'Festival Budaya XXXI';text-align:center;text-anchor:middle;stroke-width:0.264583"
     id="path950"
     inkscape:label="i" />
  <path
     d="m 90.380903,67.343349 c 0,2.43086 1.98437,4.39043 4.41523,4.39043 1.0418,0 1.95957,-0.32246 2.75332,-0.96738 -0.5209,1.43867 -1.73633,2.75332 -3.59668,2.75332 -0.39687,0.0496 -0.76894,0.0496 -1.11621,0 l -0.0744,2.90215 c 1.14101,0.0992 2.00918,0.0248 3.02617,-0.29766 2.40605,-0.74414 3.99355,-2.53008 4.712887,-5.06016 0.79375,-3.00136 -0.39687,-5.50664 -2.033977,-6.94531 -0.99219,-0.76894 -1.76114,-0.96738 -3.07578,-1.19062 h -0.17364 v 0.0248 c -0.17363,0 -0.29765,-0.0248 -0.42168,-0.0248 -2.43086,0 -4.41523,2.00918 -4.41523,4.41523 z"
     style="font-size:50.8px;line-height:0.85;font-family:'Festival Budaya XXXI';-inkscape-font-specification:'Festival Budaya XXXI';text-align:center;text-anchor:middle;stroke-width:0.264583"
     id="path952"
     inkscape:label="'" />
  <path
     d="m 120.44418,104.6248 h 11.95586 l 0.5457,-0.0992 c 0.34726,-0.0744 0.59531,-0.29766 0.69453,-0.69453 0.0992,-0.39688 -0.0248,-0.59532 -0.32246,-0.54571 -0.89297,0.12403 -1.51309,-2.60449 -1.51309,-3.27422 l 9.59942,-25.697651 v 21.62969 c 0,2.60449 -0.47129,4.241601 -1.90996,5.903511 -0.54571,0.64492 -1.0418,0.96738 -1.43868,0.96738 -0.39687,0 -0.59531,0.24805 -0.59531,0.79375 -0.0248,0.54571 0.27285,0.84336 0.89297,0.89297 l 0.91777,0.0992 h 13.27051 l 0.91778,-0.0992 c 0.59531,-0.0496 0.91777,-0.34726 0.91777,-0.89297 -0.0248,-0.5457 -0.24805,-0.79375 -0.64492,-0.79375 -0.39688,0 -0.86817,-0.32246 -1.41387,-0.96738 -1.46348,-1.63711 -1.90996,-3.299021 -1.90996,-5.903511 v -26.417 c 0.22324,-0.79375 0.71933,-1.68671 1.48828,-2.6789 0.47129,-0.64492 0.84336,-0.94258 1.14102,-0.89297 0.27285,0.0496 0.44648,-0.14883 0.49609,-0.57051 0.0496,-0.64492 -0.42168,-0.66973 -0.94258,-0.76894 h -17.23926 l -0.5457,0.0992 c -0.37207,0.0496 -0.59531,0.27286 -0.69453,0.66973 -0.0992,0.42168 0,0.62012 0.29766,0.57051 0.29765,-0.0496 0.62011,0.24805 0.91777,0.89297 0.49609,1.21543 0.71934,2.03398 0.5457,3.32383 l -8.30957,22.00175 -7.24297,-22.05136 c -0.0744,-0.34727 -0.0992,-0.76895 -0.0496,-1.28985 0.0496,-0.59531 0.69454,-2.97656 1.48829,-2.87734 0.29765,0.0496 0.42168,-0.14883 0.32246,-0.57051 -0.0992,-0.39687 -0.34727,-0.62012 -0.69453,-0.66973 l -0.54571,-0.0992 h -16.49511 l -0.39688,0.0992 c -0.44648,0.0992 -0.44648,1.33946 0.0248,1.24024 0.19844,-0.0496 0.4961,0.24805 0.89297,0.89297 0.54571,0.99219 0.91778,1.88515 1.11621,2.6789 v 26.417 c 0,2.43086 -0.34726,4.216791 -1.43867,5.903511 -0.42168,0.64492 -0.79375,0.96738 -1.0914,0.96738 -0.29766,0 -0.44649,0.24805 -0.44649,0.79375 0,0.54571 0.22324,0.84336 0.69453,0.89297 l 0.69453,0.0992 h 9.97149 l 0.69453,-0.0992 c 0.44648,-0.0496 0.69453,-0.34726 0.69453,-0.89297 -0.0248,-0.5457 -0.19844,-0.79375 -0.49609,-0.79375 -0.29766,0 -0.64492,-0.32246 -1.0418,-0.96738 -1.14102,-1.68672 -1.46348,-3.447851 -1.46348,-5.903511 v -19.86856 l 7.59024,22.54746 c 0.0496,0.29766 1.36426,3.423051 0.69453,3.968751 -0.71934,0.62012 -1.09141,0.81856 -1.01699,1.53789 0,0.29766 0.19843,0.37207 0.42168,0.4961 z m -6.8461,-30.484961 c -0.86816,-1.38907 -0.86816,-1.83555 -0.0248,-1.33946 0.17363,0.12403 0.39687,0.47129 0.66973,1.0666 l 8.45839,25.49922 c 0.19844,0.992191 0.24805,1.612311 0.0992,1.810751 -0.14883,0.19843 -0.39687,-0.34727 -0.79375,-1.637111 z m -6.87089,-6.94532 c -0.17364,-0.27285 -0.12403,-0.37207 0.14882,-0.29765 0.34727,0.12402 0.89297,1.48828 0.89297,1.98437 v 30.50977 c -0.14883,0.719331 -0.32246,1.091401 -0.5209,1.116211 -0.19843,0.0248 -0.24804,-0.34727 -0.12402,-1.116211 v -30.36094 c -0.0992,-1.09141 -0.0992,-0.86816 -0.39687,-1.83555 z m 35.89238,5.50664 c -0.0992,-0.79375 -0.0744,-1.24023 0.12402,-1.28984 0.19844,-0.0744 0.39688,0.29766 0.57051,1.11621 v 26.83867 c -0.17363,0.744141 -0.37207,1.116211 -0.59531,1.141021 -0.22325,0.0248 -0.24805,-0.34727 -0.0992,-1.141021 z m -12.30313,18.00821 c -0.12402,0.39687 -0.49609,0.99218 -1.11621,1.83554 -0.64492,0.84336 -0.47129,0.12403 0.47129,-2.1332 l 7.63984,-20.14141 v -0.44648 c 0,-0.22324 0.0248,-1.0418 0.29766,-0.71934 0.39688,0.44649 0.34727,0.32247 0.42168,1.33946 z"
     style="font-size:50.8px;line-height:0.85;font-family:'Festival Budaya XXXI';-inkscape-font-specification:'Festival Budaya XXXI';text-align:center;text-anchor:middle;stroke-width:0.264583"
     id="path954"
     inkscape:label="m" />
  <path
     d="m 177.04847,64.416399 c -5.70508,0 -10.5916,1.98437 -14.63476,5.92832 -4.04317,3.94394 -6.05235,8.70644 -6.05235,14.26269 0,5.58106 2.00918,10.34356 6.05235,14.2875 4.04316,3.919141 8.92968,5.903521 14.63476,5.903521 5.70508,0 10.5668,-1.98438 14.60996,-5.903521 4.04317,-3.94394 6.07715,-8.70644 6.07715,-14.2875 0,-5.55625 -2.03398,-10.31875 -6.07715,-14.26269 -4.04316,-3.94395 -8.90488,-5.92832 -14.60996,-5.92832 z m 0,5.90351 c 2.70371,0 5.01055,1.41387 6.92051,4.192 1.93477,2.80293 2.87734,6.17636 2.87734,10.12031 0,3.94394 -0.94257,7.31738 -2.87734,10.09551 -1.90996,2.77812 -4.2168,4.16718 -6.92051,4.16718 -2.72851,0 -5.03535,-1.38906 -6.94531,-4.16718 -1.93477,-2.77813 -2.87734,-6.15157 -2.87734,-10.09551 0,-3.94395 0.94257,-7.31738 2.87734,-10.12031 1.90996,-2.77813 4.2168,-4.192 6.94531,-4.192 z m 5.20899,0.0248 c -0.44649,-0.37207 -0.24805,-0.37207 0.59531,0.0248 0.86816,0.4961 1.66191,1.09141 2.43086,1.93477 1.78594,2.1084 2.95176,4.51445 3.84472,7.49101 1.51309,5.08497 -0.0248,11.50938 -2.1332,14.98204 -0.76894,1.28984 -2.77812,3.22461 -3.96875,4.06796 -0.86816,0.64493 -0.96738,0.5209 -0.29765,-0.34726 0.22324,-0.29766 0.66972,-0.69453 1.33945,-1.24024 0.64492,-0.52089 1.19062,-1.0666 1.63711,-1.6371 2.77812,-3.6959 4.06797,-11.6334 2.1084,-17.33848 -1.017,-2.80293 -2.48047,-5.2834 -4.48965,-6.97012 -0.5209,-0.44648 -0.86817,-0.76894 -1.0666,-0.96738 z m -16.3711,-0.19844 c -1.33945,1.0666 -2.38125,2.1332 -3.12539,3.19981 -2.1084,3.00136 -4.29121,7.56543 -3.84472,12.47675 0.29765,3.42305 2.1332,7.86309 4.34082,10.542 1.19062,1.46347 2.05879,2.82773 3.7455,3.646281 0.84336,0.44649 1.46348,0.79375 1.81075,1.09141 0.27285,0.29766 0.39687,0.47129 0.39687,0.5457 -0.24805,0.4961 -3.32383,-1.63711 -3.91914,-2.083591 -2.75332,-1.98437 -4.7873,-5.50664 -6.12676,-8.83047 -1.76113,-4.36562 -1.71152,-7.91269 0.0992,-12.62558 1.66192,-4.29121 3.00137,-6.02754 6.35,-8.60723 2.03399,-1.53789 2.15801,-1.68672 3.6711,-2.30684 0.66972,-0.27285 0.24804,0.0992 0.0496,0.24805 -1.01699,0.71934 -1.86035,1.46348 -3.44785,2.70371 z"
     style="font-size:50.8px;line-height:0.85;font-family:'Festival Budaya XXXI';-inkscape-font-specification:'Festival Budaya XXXI';text-align:center;text-anchor:middle;stroke-width:0.264583"
     id="path956"
     inkscape:label="o" />
  <path
     d="m 57.403073,113.10509 h -10.96367 l -0.4961,0.0992 c -0.64492,0.0992 -0.59531,1.33945 0.0248,1.24023 0.29765,-0.0496 0.69453,0.24805 1.19062,0.89297 0.76895,1.0666 1.26504,1.95957 1.46348,2.67891 v 26.39218 c 0,2.6293 -0.49609,4.2416 -1.93477,5.90352 -0.5457,0.64492 -1.04179,0.96738 -1.43867,0.96738 -0.39687,0 -0.59531,0.24805 -0.59531,0.79375 0,0.5457 0.29766,0.84336 0.91777,0.89297 l 0.91778,0.0992 h 10.24433 l 0.91778,-0.0744 c 0.59531,-0.0496 0.91777,-0.37207 0.91777,-0.91777 -0.0248,-0.5209 -0.24805,-0.79375 -0.64492,-0.79375 -0.39688,0 -0.86817,-0.32246 -1.41387,-0.96738 -0.64492,-0.71934 -1.11621,-1.51309 -1.41387,-2.38125 l 0.0248,-21.75371 12.55117,25.30078 c 0.29766,0.57051 0.5209,0.96738 0.71933,1.21543 0.17364,0.24804 0.5209,0.39687 1.0418,0.39687 h 10.96367 l 0.4961,-0.0992 c 0.62011,-0.12402 0.5457,-1.31464 -0.0496,-1.21543 -0.76895,0.14883 -2.1084,-2.25722 -2.35645,-2.87734 l 0.0248,-29.91445 c 0.24804,-1.11621 0.79375,-2.15801 1.63711,-3.12539 0.5457,-0.59531 1.01699,-0.91778 1.41386,-0.91778 0.39688,0 0.62012,-0.27285 0.62012,-0.81855 0,-0.5457 -0.32246,-0.84336 -0.91777,-0.91777 l -0.89297,-0.0992 h -10.26914 l -0.91778,0.0992 c -0.59531,0.0744 -0.89296,0.37207 -0.89296,0.89296 0,0.54571 0.19843,0.81856 0.59531,0.81856 0.39687,0 0.89297,0.32246 1.43867,0.94258 0.84336,1.04179 1.41387,2.18281 1.68672,3.37344 v 20.76152 l -12.97283,-26.11934 c -0.27285,-0.5209 -0.81856,-0.76894 -1.63711,-0.76894 z m -2.0836,11.21172 c -0.29765,-0.14883 -0.27285,-0.29766 0.0744,-0.39688 0.44648,-0.12402 1.5875,1.0418 1.78594,1.33945 l 12.45195,25.25118 c 0.0496,0.24804 0.19844,0.42168 0.44648,0.5457 0.24805,0.12402 0.27286,0.29765 0.0744,0.49609 -0.34727,0.37207 -1.14102,-0.59531 -1.16582,-0.74414 l -12.37754,-25.12715 c -0.62012,-0.89297 -0.4961,-0.69453 -1.28985,-1.36425 z m -6.15156,-8.40879 c -0.17363,-0.27285 -0.0992,-0.37207 0.22324,-0.32246 0.39688,0.0992 0.96739,1.43867 1.017,1.98437 v 30.50977 c -0.19844,0.71933 -0.42168,1.0914 -0.64493,1.11621 -0.22324,0 -0.24804,-0.37207 -0.0496,-1.11621 v -30.36094 c -0.17364,-1.11621 -0.14883,-0.89297 -0.54571,-1.81074 z m 23.39082,0.64492 c -0.0992,-0.24805 -0.0248,-0.37207 0.24805,-0.32246 0.37207,0.12402 0.96738,1.48828 1.01699,1.98437 l -0.0248,22.57227 c -0.19844,0.69453 -0.39688,1.0666 -0.62012,1.0914 -0.22324,0.0248 -0.24805,-0.34726 -0.0744,-1.0914 v -22.44824 c -0.17364,-1.09141 -0.14883,-0.86817 -0.54571,-1.78594 z"
     style="font-size:50.8px;line-height:0.85;font-family:'Festival Budaya XXXI';-inkscape-font-specification:'Festival Budaya XXXI';text-align:center;text-anchor:middle;stroke-width:0.264583"
     id="path958"
     inkscape:label="n" />
  <path
     d="m 89.103463,113.10509 h -2.18281 l -0.5209,0.0992 c -0.62012,0.12402 -0.54571,1.36425 0.0248,1.24023 0.29766,-0.0496 0.66973,0.24805 1.16582,0.89297 0.74414,1.01699 1.24024,1.90996 1.48828,2.67891 v 26.41699 c 0,2.60449 -0.44648,4.2416 -1.90996,5.90351 -0.5457,0.64492 -1.01699,0.96739 -1.41386,0.96739 -0.39688,0 -0.62012,0.24804 -0.62012,0.79375 0,0.5457 0.32246,0.84335 0.91777,0.89296 l 0.91778,0.0992 h 11.1125 l 16.147847,-0.0248 1.38906,-7.63985 -0.0992,-0.49609 c -0.12402,-0.62012 -1.41387,-0.5209 -1.31465,0.0496 0.0496,0.27285 -0.24805,0.64492 -0.94258,1.14102 -0.17363,0.17363 -0.62011,0.34726 -0.86816,0.44648 l -14.312297,0.0248 V 134.28824 H 108.7736 l -0.62012,-5.90352 -10.070697,-0.0248 v -8.75605 h 13.121667 c 0.54571,0.37207 1.5875,1.21543 1.5379,1.6123 -0.0496,0.29766 0.14882,0.44648 0.5457,0.47129 0.39687,0.0496 0.64492,-0.0744 0.69453,-0.42168 l 0.0744,-0.5209 -0.81855,-7.63984 H 93.270663 Z m 0.76894,2.77812 c -0.14882,-0.24804 -0.0744,-0.37207 0.22325,-0.32246 0.39687,0.14883 0.99218,1.46348 0.99218,1.95957 l 0.0248,29.91445 c -0.17363,0.71934 -0.37207,1.09141 -0.59531,1.09141 -0.22325,0.0248 -0.24805,-0.34727 -0.0992,-1.09141 v -29.79042 c -0.17364,-1.0418 -0.14883,-0.79375 -0.54571,-1.76114 z"
     style="font-size:50.8px;line-height:0.85;font-family:'Festival Budaya XXXI';-inkscape-font-specification:'Festival Budaya XXXI';text-align:center;text-anchor:middle;stroke-width:0.264583"
     id="path960"
     inkscape:label="e" />
  <path
     d="m 134.14877,136.84317 c 0.44648,0.22325 1.14101,0.39688 1.43867,0.71934 0.84336,0.94258 2.48047,3.52226 4.88652,7.73906 2.43086,4.2168 5.53145,8.63203 9.35137,13.29531 1.90996,2.33164 4.36563,4.68809 7.36699,7.04453 3.02617,2.35645 6.94532,3.54707 11.75742,3.57188 4.56407,0.0248 8.38399,-0.79375 11.50938,-2.48047 3.12539,-1.66191 5.50664,-3.44785 7.11894,-5.35781 1.63711,-1.90996 2.48047,-3.57188 2.57969,-4.98574 0.0992,-1.38907 -0.59531,-1.81075 -2.08359,-1.24024 -4.61367,1.71153 -8.35918,2.92696 -11.21172,3.64629 -2.87734,0.71934 -6.05234,0.86817 -9.57461,0.42168 -5.2834,-0.64492 -9.92187,-3.42305 -13.91543,-8.33437 -3.99355,-4.91133 -7.4166,-9.72344 -10.24433,-14.43633 0.74414,-0.17363 0.96738,-0.69453 1.66191,-0.99219 1.31465,-0.5457 2.6541,-1.56269 4.01836,-3.00137 1.33945,-1.43867 2.18281,-2.87734 2.48047,-4.34082 0.39687,-2.05879 0.34726,-4.04316 -0.19844,-5.92832 -0.94258,-3.24941 -3.22461,-6.3748 -6.39961,-7.81347 -2.18281,-0.96739 -3.94394,-1.19063 -6.62285,-1.26504 0,0 0,-0.0248 0,-0.0248 0,0 -11.33574,0.0248 -11.33574,0.0248 h -6.35 l -0.4961,0.0992 c -0.62011,0.0992 -0.5457,1.33945 0.0248,1.21543 0.29765,-0.0496 0.66972,0.24804 1.16582,0.89296 0.74414,1.017 1.24023,1.90997 1.48828,2.67891 v 26.73945 l -0.0248,-0.29765 c 0,2.62929 -0.44648,4.2416 -1.90996,5.90351 -0.5457,0.64492 -1.01699,0.96739 -1.41386,0.96739 -0.39688,0 -0.62012,0.24804 -0.62012,0.79375 0,0.5457 0.32246,0.84335 0.91777,0.89296 l 0.91778,0.0992 h 12.89843 l 0.91778,-0.0992 c 0.59531,-0.0496 0.89297,-0.37207 0.89297,-0.91777 0,-0.5209 -0.19844,-0.79375 -0.59532,-0.79375 -0.39687,0 -0.89297,-0.29766 -1.43867,-0.94258 -0.74414,-0.84336 -1.26504,-1.81074 -1.56269,-2.90215 v -10.5916 h 0.71933 c 0.47129,0 1.43867,0.0496 1.88516,0 z m -2.60449,-5.45703 -0.0248,-11.68301 h 3.32383 c 4.34082,0 8.21035,1.43868 8.4584,5.2834 0.14883,3.22461 -1.88516,5.60586 -4.63848,6.15156 -1.0914,0.24805 -3.29902,0.24805 -4.58887,0.24805 z m -8.30957,-15.60215 c -0.14883,-0.29765 -0.0744,-0.42168 0.22324,-0.32246 0.39687,0.14883 0.99219,1.48828 1.01699,1.98438 l 0.0248,30.41054 c -0.19844,0.71934 -0.39688,1.09141 -0.62012,1.11621 -0.19844,0.0248 -0.22324,-0.34726 -0.0744,-1.11621 l -0.0248,-30.28652 c -0.17363,-1.0666 -0.12402,-0.84336 -0.5457,-1.78594 z m 18.92597,4.58887 c -0.44648,-0.29766 -0.62011,-0.49609 -0.49609,-0.57051 0.34726,-0.0992 0.84336,0.12403 1.46348,0.64492 1.24023,1.06661 2.10839,3.175 2.05878,5.53145 0,2.40605 -0.99218,4.46484 -2.50527,5.18418 -0.42168,0.24805 -0.74414,0.29766 -0.99219,0.14883 -0.0992,-0.0248 0.99219,-0.84336 1.24024,-1.0418 0.99219,-0.76894 1.38906,-1.98437 1.56269,-3.74551 0.19844,-2.82773 -0.76894,-4.88652 -2.33164,-6.15156 z m -4.93613,16.76797 c 0.24805,-0.29766 0.86816,0.37207 1.81074,1.95957 0.94258,1.6123 1.48828,2.53008 1.63711,2.75332 l 0.47129,0.79375 c 2.25723,3.74551 4.7625,7.59023 7.46621,10.96367 2.45566,3.05098 5.95313,7.34219 9.15293,9.47539 l 1.63711,1.09141 c 1.09141,0.69453 2.82773,1.31465 4.14238,1.93476 0.14883,0.0744 3.05098,0.99219 3.00137,1.11621 -0.34727,1.31465 -7.16855,-2.23242 -7.16855,-2.23242 -1.33946,-0.86816 -2.57969,-1.56269 -3.84473,-2.62929 -1.21543,-1.0418 -2.53008,-2.35645 -3.91914,-3.94395 -2.57969,-2.95176 -4.91133,-5.8043 -6.97012,-8.80566 -1.48828,-2.15801 -2.75332,-4.39043 -4.01836,-6.57325 l -0.49609,-0.79375 c -0.0248,-0.0496 -3.175,-4.8121 -2.90215,-5.10976 z"
     style="font-size:50.8px;line-height:0.85;font-family:'Festival Budaya XXXI';-inkscape-font-specification:'Festival Budaya XXXI';text-align:center;text-anchor:middle;stroke-width:0.264583"
     id="path962"
     inkscape:label="r" />
  <path
     d="m 57.62825,22.74944 q 0,-2.754492 -1.625602,-4.651027 -1.603024,-1.896535 -4.176893,-1.896535 -2.596447,0 -4.222049,1.896535 -1.603024,1.896535 -1.603024,4.651027 0,2.754492 1.603024,4.651027 1.625602,1.896535 4.222049,1.896535 2.573869,0 4.176893,-1.896535 1.625602,-1.896535 1.625602,-4.651027 z m 2.099735,0.04516 q 0,3.544715 -2.235202,5.96054 -2.235202,2.415825 -5.667028,2.415825 -3.454403,0 -5.689606,-2.415825 -2.235202,-2.415825 -2.235202,-5.96054 0,-3.680181 2.212624,-6.05085 2.235203,-2.393247 5.712184,-2.393247 3.476981,0 5.689606,2.393247 2.212624,2.370669 2.212624,6.05085 z"
     style="font-size:22.5778px;-inkscape-font-specification:'Laksaman Bold';text-align:center;text-anchor:middle;stroke-width:0.503086"
     id="path820" />
  <path
     d="m 66.614199,14.485965 q 2.754491,0 4.560715,1.264357 1.828802,1.241779 1.828802,3.567292 0,2.483558 -1.986846,3.860804 -1.964269,1.377246 -4.876805,1.377246 -0.677334,0 -1.693335,-0.112889 v 6.389518 h -2.144891 v -15.91735 q 2.573869,-0.428978 4.31236,-0.428978 z m 4.244626,4.944538 q 0,-3.093159 -4.267204,-3.093159 -1.264357,0 -2.144891,0.09031 v 6.073428 q 1.151468,0.2032 1.941691,0.2032 4.470404,0 4.470404,-3.273781 z"
     style="font-size:22.5778px;-inkscape-font-specification:'Laksaman Bold';text-align:center;text-anchor:middle;stroke-width:0.503086"
     id="path822" />
  <path
     d="M 85.15054,30.832293 H 75.532397 V 14.666587 h 9.618143 v 1.828802 h -7.473252 v 4.899383 h 6.660451 v 1.828802 h -6.660451 v 5.779917 h 7.473252 z"
     style="font-size:22.5778px;-inkscape-font-specification:'Laksaman Bold';text-align:center;text-anchor:middle;stroke-width:0.503086"
     id="path824" />
  <path
     d="m 100.32278,30.832293 h -2.032 L 89.824104,17.71459 V 30.832293 H 87.679213 V 14.666587 h 2.144891 l 8.353787,12.779035 V 14.666587 h 2.144889 z"
     style="font-size:22.5778px;-inkscape-font-specification:'Laksaman Bold';text-align:center;text-anchor:middle;stroke-width:0.503086"
     id="path826" />
  <path
     d="m 110.93432,18.753169 q 0,-1.986846 1.58044,-3.18347 1.60303,-1.219201 3.86081,-1.219201 2.4384,0 4.17689,1.106312 l -0.92569,1.693335 q -1.71591,-0.857956 -3.29636,-0.857956 -1.30951,0 -2.28036,0.6096 -0.97084,0.609601 -0.97084,1.670758 0,1.873957 3.2512,2.912536 2.34809,0.745067 3.58987,1.85138 1.24178,1.083734 1.24178,3.070581 0,2.144891 -1.73849,3.454403 -1.71591,1.286935 -4.13174,1.286935 -2.66418,0 -4.98969,-1.467557 l 0.90311,-1.941691 q 1.94169,1.467557 4.22205,1.467557 1.55787,0 2.55129,-0.677334 1.016,-0.699912 1.016,-2.009424 0,-2.05458 -3.27378,-3.093159 -4.78649,-1.535291 -4.78649,-4.673605 z"
     style="font-size:22.5778px;-inkscape-font-specification:'Laksaman Bold';text-align:center;text-anchor:middle;stroke-width:0.503086"
     id="path828" />
  <path
     d="m 136.65042,22.74944 q 0,-2.754492 -1.6256,-4.651027 -1.60302,-1.896535 -4.17689,-1.896535 -2.59645,0 -4.22205,1.896535 -1.60303,1.896535 -1.60303,4.651027 0,2.754492 1.60303,4.651027 1.6256,1.896535 4.22205,1.896535 2.57387,0 4.17689,-1.896535 1.6256,-1.896535 1.6256,-4.651027 z m 2.09974,0.04516 q 0,3.544715 -2.23521,5.96054 -2.2352,2.415825 -5.66702,2.415825 -3.45441,0 -5.68961,-2.415825 -2.2352,-2.415825 -2.2352,-5.96054 0,-3.680181 2.21262,-6.05085 2.2352,-2.393247 5.71219,-2.393247 3.47698,0 5.6896,2.393247 2.21263,2.370669 2.21263,6.05085 z"
     style="font-size:22.5778px;-inkscape-font-specification:'Laksaman Bold';text-align:center;text-anchor:middle;stroke-width:0.503086"
     id="path830" />
  <path
     d="m 154.30624,23.946063 q 0,7.202319 -6.47983,7.202319 -6.5024,0 -6.5024,-7.202319 v -9.279476 h 2.16747 v 9.279476 q 0,5.350939 4.33493,5.350939 4.31236,0 4.31236,-5.350939 v -9.279476 h 2.16747 z"
     style="font-size:22.5778px;-inkscape-font-specification:'Laksaman Bold';text-align:center;text-anchor:middle;stroke-width:0.503086"
     id="path832" />
  <path
     d="m 162.07297,14.485965 q 2.70934,0 4.49299,1.174045 1.80622,1.151468 1.80622,3.386671 0,2.777069 -2.66418,4.018848 1.49014,0.993423 2.09974,2.709336 0.6096,1.715913 1.10631,5.057428 h -2.14489 q -0.92569,-7.021696 -4.22205,-7.021696 h -2.70934 v 7.021696 h -2.14489 V 14.937521 q 2.50614,-0.451556 4.38009,-0.451556 z m 4.22205,4.696182 q 0,-2.822225 -4.22205,-2.822225 -1.26435,0 -2.2352,0.112889 v 5.554139 h 2.61903 q 3.83822,0 3.83822,-2.844803 z"
     style="font-size:22.5778px;-inkscape-font-specification:'Laksaman Bold';text-align:center;text-anchor:middle;stroke-width:0.503086"
     id="path834" />
  <path
     d="m 170.29129,22.794595 q 0,-3.815648 2.07716,-6.096006 2.07716,-2.280358 5.71218,-2.280358 2.86738,0 5.26063,0.993424 l -0.67734,1.693335 q -2.00942,-0.835379 -4.51556,-0.835379 -2.75449,0 -4.22204,1.761069 -1.46756,1.73849 -1.46756,4.831649 0,2.777069 1.46756,4.583293 1.49013,1.783647 3.95111,1.783647 2.82223,0 4.87681,-1.016001 l 0.58702,1.761068 q -2.52872,1.106312 -5.91539,1.106312 -3.29635,0 -5.21547,-2.348091 -1.91911,-2.348091 -1.91911,-5.937962 z"
     style="font-size:22.5778px;-inkscape-font-specification:'Laksaman Bold';text-align:center;text-anchor:middle;stroke-width:0.503086"
     id="path836" />
  <path
     d="m 195.3752,30.832293 h -9.61815 V 14.666587 h 9.61815 v 1.828802 h -7.47326 v 4.899383 h 6.66045 v 1.828802 h -6.66045 v 5.779917 h 7.47326 z"
     style="font-size:22.5778px;-inkscape-font-specification:'Laksaman Bold';text-align:center;text-anchor:middle;stroke-width:0.503086"
     id="path838" />
  <path
     d="M 46.903763,198.47235 H 36.856642 v -16.1657 h 2.144891 v 14.3369 h 7.90223 z"
     style="font-size:22.5778px;-inkscape-font-specification:'Laksaman Bold';text-align:center;text-anchor:middle;stroke-width:0.503086"
     id="path861" />
  <path
     d="m 58.666775,198.47235 h -9.618143 v -16.1657 h 9.618143 v 1.8288 h -7.473252 v 4.89938 h 6.660451 v 1.8288 h -6.660451 v 5.77992 h 7.473252 z"
     style="font-size:22.5778px;-inkscape-font-specification:'Laksaman Bold';text-align:center;text-anchor:middle;stroke-width:0.503086"
     id="path863" />
  <path
     d="m 78.01591,198.47235 h -2.077158 l -0.880534,-12.53068 -5.102583,12.53068 h -1.422402 l -5.102583,-12.53068 -0.880534,12.53068 h -2.05458 l 1.151468,-16.1657 h 2.235202 l 5.373517,13.45636 5.350939,-13.45636 h 2.25778 z"
     style="font-size:22.5778px;-inkscape-font-specification:'Laksaman Bold';text-align:center;text-anchor:middle;stroke-width:0.503086"
     id="path865" />
  <path
     d="m 93.594569,190.3895 q 0,-2.75449 -1.625601,-4.65103 -1.603024,-1.89653 -4.176893,-1.89653 -2.596448,0 -4.222049,1.89653 -1.603024,1.89654 -1.603024,4.65103 0,2.75449 1.603024,4.65103 1.625601,1.89653 4.222049,1.89653 2.573869,0 4.176893,-1.89653 1.625601,-1.89654 1.625601,-4.65103 z m 2.099736,0.0452 q 0,3.54472 -2.235202,5.96054 -2.235203,2.41583 -5.667028,2.41583 -3.454404,0 -5.689606,-2.41583 -2.235203,-2.41582 -2.235203,-5.96054 0,-3.68018 2.212625,-6.05085 2.235202,-2.39324 5.712184,-2.39324 3.476981,0 5.689605,2.39324 2.212625,2.37067 2.212625,6.05085 z"
     style="font-size:22.5778px;-inkscape-font-specification:'Laksaman Bold';text-align:center;text-anchor:middle;stroke-width:0.503086"
     id="path867" />
  <path
     d="m 110.91172,198.47235 h -2.032 l -8.46667,-13.1177 v 13.1177 h -2.144894 v -16.1657 h 2.144894 l 8.35378,12.77903 v -12.77903 h 2.14489 z"
     style="font-size:22.5778px;-inkscape-font-specification:'Laksaman Bold';text-align:center;text-anchor:middle;stroke-width:0.503086"
     id="path869" />
  <path
     d="m 131.97678,198.47235 h -10.04712 v -16.1657 h 2.14489 v 14.3369 h 7.90223 z"
     style="font-size:22.5778px;-inkscape-font-specification:'Laksaman Bold';text-align:center;text-anchor:middle;stroke-width:0.503086"
     id="path871" />
  <path
     d="m 136.26654,198.47235 h -2.14489 v -16.1657 h 2.14489 z"
     style="font-size:22.5778px;-inkscape-font-specification:'Laksaman Bold';text-align:center;text-anchor:middle;stroke-width:0.503086"
     id="path873" />
  <path
     d="m 152.56768,190.3895 q 0,-2.75449 -1.6256,-4.65103 -1.60302,-1.89653 -4.17689,-1.89653 -2.59645,0 -4.22205,1.89653 -1.60302,1.89654 -1.60302,4.65103 0,2.75449 1.60302,4.65103 1.6256,1.89653 4.22205,1.89653 2.57387,0 4.17689,-1.89653 1.6256,-1.89654 1.6256,-4.65103 z m 2.09974,0.0452 q 0,2.7545 -1.30951,4.74134 -1.30952,1.96427 -3.47698,2.70934 v 0.13547 q 2.55129,0.63217 4.92196,1.03857 l -0.67734,1.82881 q -2.4384,-0.63218 -6.47983,-1.9417 -0.15804,-0.0677 -0.88053,-0.13546 -3.4544,0 -5.68961,-2.41583 -2.2352,-2.41582 -2.2352,-5.96054 0,-3.56729 2.2352,-6.00569 2.23521,-2.4384 5.68961,-2.4384 3.4544,0 5.66703,2.4384 2.2352,2.4384 2.2352,6.00569 z"
     style="font-size:22.5778px;-inkscape-font-specification:'Laksaman Bold';text-align:center;text-anchor:middle;stroke-width:0.503086"
     id="path875" />
  <path
     d="m 170.22351,191.58612 q 0,7.20232 -6.47983,7.20232 -6.5024,0 -6.5024,-7.20232 v -9.27947 h 2.16747 v 9.27947 q 0,5.35094 4.33493,5.35094 4.31236,0 4.31236,-5.35094 v -9.27947 h 2.16747 z"
     style="font-size:22.5778px;-inkscape-font-specification:'Laksaman Bold';text-align:center;text-anchor:middle;stroke-width:0.503086"
     id="path877" />
  <path
     d="m 186.52465,190.3895 q 0,-2.75449 -1.6256,-4.65103 -1.60302,-1.89653 -4.17689,-1.89653 -2.59645,0 -4.22205,1.89653 -1.60302,1.89654 -1.60302,4.65103 0,2.75449 1.60302,4.65103 1.6256,1.89653 4.22205,1.89653 2.57387,0 4.17689,-1.89653 1.6256,-1.89654 1.6256,-4.65103 z m 2.09974,0.0452 q 0,3.54472 -2.2352,5.96054 -2.23521,2.41583 -5.66703,2.41583 -3.4544,0 -5.68961,-2.41583 -2.2352,-2.41582 -2.2352,-5.96054 0,-3.68018 2.21263,-6.05085 2.2352,-2.39324 5.71218,-2.39324 3.47698,0 5.6896,2.39324 2.21263,2.37067 2.21263,6.05085 z"
     style="font-size:22.5778px;-inkscape-font-specification:'Laksaman Bold';text-align:center;text-anchor:middle;stroke-width:0.503086"
     id="path879" />
  <path
     d="m 195.57833,182.12602 q 2.70934,0 4.49299,1.17405 1.80622,1.15147 1.80622,3.38667 0,2.77707 -2.66418,4.01885 1.49013,0.99342 2.09974,2.70933 0.6096,1.71592 1.10631,5.05743 h -2.14489 q -0.92569,-7.02169 -4.22205,-7.02169 h -2.70934 v 7.02169 h -2.14489 v -15.89477 q 2.50614,-0.45156 4.38009,-0.45156 z m 4.22205,4.69619 q 0,-2.82223 -4.22205,-2.82223 -1.26435,0 -2.2352,0.11289 v 5.55414 h 2.61903 q 3.83822,0 3.83822,-2.8448 z"
     style="font-size:22.5778px;-inkscape-font-specification:'Laksaman Bold';text-align:center;text-anchor:middle;stroke-width:0.503086"
     id="path881" />
  <path
     id="path21168"
     style="color:#000000;fill:#000000"
     d="m 3.307965,160.62395 v 1.3224 H 150.14138 c -0.41654,-0.44009 -0.81725,-0.881 -1.19941,-1.3224 z m 187.321895,0 c -0.28257,0.43797 -0.60137,0.87821 -0.95239,1.3224 h 46.29071 v -1.3224 z" />
  <path
     id="path21170"
     style="color:#000000;fill:#000000"
     d="m 3.307965,163.27081 v 1.32189 H 152.86007 c -0.4884,-0.44004 -0.95758,-0.88052 -1.41128,-1.32189 z m 185.237785,0 c -0.42075,0.45189 -0.87305,0.8926 -1.36012,1.32189 h 48.78255 v -1.32189 z" />
  <path
     id="path32938"
     style="color:#000000;fill:#000000"
     d="m 3.307965,54.567369 v 1.3224 h 45.963086 v -1.3224 z m 69.052633,0 1.228349,1.3224 h 92.071383 l 1.22835,-1.3224 z m 117.615562,0 v 1.3224 h 45.99202 v -1.3224 z" />
  <path
     id="path32940"
     style="color:#000000;fill:#000000"
     d="m 3.307965,57.214236 v 1.321883 h 45.963086 v -1.321883 z m 71.510881,0 1.227832,1.321883 h 87.155402 l 1.22783,-1.321883 z m 115.157314,0 v 1.321883 h 45.99202 v -1.321883 z" />
  <path
     d="m 31.033959,244.30759 0.516765,0.41341 -0.413412,0.51676 c -0.258382,0.27561 -0.378961,0.6029 -0.378961,1.01631 0,0.72347 0.327284,1.24023 0.999079,1.55029 0.654568,0.31006 1.274686,0.34451 1.825901,0.0689 0.241157,-0.12058 0.482314,-0.49954 0.723471,-1.11965 0.413412,-1.05076 0.275608,-2.11874 -0.378961,-3.20395 -1.257461,-1.91202 -3.203941,-2.80775 -5.856666,-2.7044 -1.825902,0.10336 -3.496774,0.70625 -4.995392,1.80868 -2.204863,1.6192 -3.307294,3.78961 -3.307294,6.47678 0.03445,3.18672 1.481392,5.271 3.341745,7.26916 0.895725,0.96463 2.6355,2.41157 5.236549,4.34082 l 0.447862,0.32729 c 0.981853,0.77514 1.963706,1.56752 2.945559,2.35989 2.084284,1.70532 3.341745,3.16949 4.58198,5.87389 0.620118,1.37804 0.947402,2.94556 0.947402,4.66811 -0.03445,1.55029 -0.482314,3.18671 -1.343588,4.89204 -1.739774,3.42787 -3.789608,4.92649 -7.889274,6.04614 -3.135039,0.75793 -6.011696,0.65457 -8.647196,-0.31005 -2.48047,-0.96463 -4.203019,-2.82498 -5.167646,-5.58106 -0.826824,-2.48047 -0.585667,-5.02985 0.689019,-7.61367 1.03353,-2.17041 2.549373,-3.70348 4.58198,-4.58198 1.41249,-0.58567 2.928334,-0.63734 4.547529,-0.1378 2.359892,0.72347 3.720706,2.18763 4.099667,4.3925 0.327284,2.37711 -0.568441,3.94463 -2.687176,4.68533 l -0.654569,0.18948 -0.172255,-0.65457 c -0.206706,-0.65457 -0.689019,-0.99908 -1.464166,-1.03353 -0.964628,-0.0689 -1.533069,0.55122 -1.56752,1.53307 -0.03445,1.0163 0.654569,1.65365 2.10151,1.92926 0.620117,0.10335 1.25746,0.10335 1.929254,0.0345 1.843128,-0.24116 3.16949,-1.18856 3.996314,-2.84221 0.241157,-0.51676 0.465088,-1.25746 0.637343,-2.22209 0.172255,-0.96462 0.103353,-1.98093 -0.223931,-3.04891 -0.447863,-1.41249 -1.429716,-2.61827 -2.962784,-3.61735 -1.619196,-1.03353 -3.445098,-1.5503 -5.477706,-1.51584 -1.963706,0.0689 -3.565676,0.55121 -4.805911,1.46416 -1.102432,0.79237 -2.687177,2.41157 -3.462324,3.56568 -1.550294,2.22209 -2.29099,5.64996 -1.619196,9.19841 0.413412,2.03261 1.446941,3.96186 3.135039,5.78776 2.738853,2.82498 6.356206,4.40973 10.852058,4.75424 3.031686,0.18948 5.839441,-0.18948 8.406039,-1.13688 1.343588,-0.51677 2.82498,-1.42972 4.444176,-2.73886 2.204863,-1.92925 3.789608,-4.09966 4.788686,-6.52846 0.912951,-2.42879 1.03353,-5.13319 0.378961,-8.1132 -1.016304,-4.44418 -3.582902,-8.38882 -7.699794,-11.85114 l -3.582901,-2.94556 c -2.170412,-1.73977 -3.85851,-3.15226 -5.029843,-4.22024 -2.773304,-2.58383 -3.617353,-4.75424 -2.532147,-6.51124 0.241157,-0.39618 0.671794,-0.8096 1.274686,-1.24023 1.378039,-0.99908 3.669029,-0.63735 4.892039,0.31006 z m -9.818529,1.68809 c 0.413412,-0.67179 0.430638,-0.63734 0.241157,-0.0344 -0.551216,1.4814 -0.482314,3.29007 0.206706,5.42603 0.275608,0.86128 0.809598,1.757 1.619196,2.72163 0.792372,0.96463 1.929255,2.04983 3.410647,3.25562 2.566598,2.10151 5.047068,3.96186 7.286382,6.02892 1.825901,1.63642 3.031686,3.15226 3.634578,4.56475 0.620117,1.41249 1.050755,3.11782 1.291911,5.11597 0.103353,0.84405 0.0689,1.70533 -0.08613,2.58383 -0.310059,1.91203 -1.705323,4.70256 -2.790529,5.94279 -0.620118,0.72347 -1.119657,1.22301 -1.481392,1.46417 -0.8785,0.58566 -0.465088,0.0689 0.0689,-0.48232 1.429715,-1.46416 2.015382,-2.53214 3.135039,-5.04707 0.981853,-2.20486 0.826823,-4.6681 0.103353,-7.3036 -0.792373,-2.98001 -2.497696,-4.92649 -4.668108,-6.8213 -0.947402,-0.82682 -2.704402,-2.25654 -5.253774,-4.25469 -2.962784,-2.30822 -4.892039,-4.13412 -5.80499,-5.47771 -0.654568,-0.98185 -1.102431,-2.04983 -1.309137,-3.22116 -0.361735,-1.84313 -0.223931,-3.32452 0.396186,-4.46141 z"
     style="font-size:35.2778px;-inkscape-font-specification:'Festival Budaya XXXI, Normal';text-align:center;text-anchor:middle;stroke-width:0.503086"
     id="path914" />
  <path
     d="m 39.38832,241.98215 c -0.03445,-0.13781 -0.05168,-0.24116 -0.05168,-0.32729 0,-0.0861 -0.08613,-0.15503 -0.258382,-0.2067 -0.482314,-0.0861 -0.568442,0.12057 -0.740696,0.37896 l -0.792373,5.77053 0.0689,0.34451 c 0.103353,0.46509 0.912951,0.39619 0.844049,-0.1378 -0.05168,-0.43064 0.723471,-0.99908 1.154108,-1.30914 h 5.64996 c 0.206706,0.34451 0.34451,0.6718 0.447863,0.98186 v 16.26086 c 0,1.80867 -0.327284,2.96278 -1.343588,4.09966 -0.378961,0.44787 -0.706245,0.6718 -0.981853,0.6718 -0.275608,0 -0.430637,0.17225 -0.430637,0.55121 0,0.37896 0.223931,0.58567 0.637343,0.62012 l 0.637343,0.0689 h 9.198411 l 0.637343,-0.0689 c 0.430637,-0.0344 0.637343,-0.24116 0.637343,-0.62012 0,-0.37896 -0.137804,-0.55121 -0.430637,-0.55121 -0.275608,0 -0.602892,-0.22393 -0.981853,-0.6718 -0.999078,-1.13688 -1.343588,-2.29099 -1.343588,-4.09966 v -16.26086 c 0.103353,-0.31006 0.241157,-0.63735 0.447863,-0.98186 h 5.64996 c 0.447863,0.31006 1.205784,0.89573 1.154108,1.30914 -0.03445,0.27561 0.08613,0.41341 0.378961,0.44786 0.275607,0.0344 0.430637,-0.0689 0.482313,-0.31006 l 0.0689,-0.34451 -0.809598,-5.77053 c -0.172255,-0.25839 -0.258382,-0.46509 -0.706245,-0.37896 -0.378961,0.10335 -0.241157,0.2067 -0.327284,0.53399 z m 6.855745,4.30637 c -0.0689,-0.15503 -0.01722,-0.22393 0.137804,-0.20671 0.258382,0.0861 0.602892,0.89573 0.637343,1.22301 v 18.60353 c -0.103353,0.44786 -0.223931,0.68902 -0.361735,0.68902 -0.137804,0.0172 -0.15503,-0.20671 -0.05168,-0.67179 v -18.53463 c -0.120578,-0.65457 -0.120578,-0.51677 -0.361735,-1.10243 z m -7.630892,-0.25838 0.430638,-2.94556 c 0.05168,-0.20671 0.327284,-0.37896 0.292833,0.0689 l -0.430637,2.92833 c -0.103353,0.56844 -0.413412,0.89573 -0.292834,-0.0517 z"
     style="font-size:35.2778px;-inkscape-font-specification:'Festival Budaya XXXI, Normal';text-align:center;text-anchor:middle;stroke-width:0.503086"
     id="path916" />
  <path
     d="m 63.762389,245.15164 -5.339902,21.41128 c -0.258382,0.51676 -0.654568,1.05075 -1.188558,1.63642 -0.413412,0.46509 -0.706245,0.67179 -0.895726,0.63734 -0.18948,-0.0344 -0.310059,0.0861 -0.378961,0.36174 -0.08613,0.46509 0.223932,0.48231 0.568442,0.55121 h 7.25193 l 0.378961,-0.0689 c 0.241157,-0.0344 0.396186,-0.2067 0.465088,-0.48231 0.0689,-0.27561 0,-0.39619 -0.206705,-0.36174 -0.206706,0.0344 -0.413412,-0.17225 -0.602893,-0.63734 -0.361735,-0.79237 -0.568441,-1.44694 -0.37896,-2.32544 l 0.912951,-3.75516 h 7.458636 l 0.981853,3.80684 c 0.03445,0.25838 0.05168,0.56844 0.01723,0.93017 -0.03445,0.39619 -0.482314,2.08429 -1.016304,1.98093 -0.206706,-0.0344 -0.275608,0.0861 -0.206706,0.36174 0.0689,0.27561 0.223931,0.44786 0.465088,0.48231 l 0.361735,0.0689 h 4.478628 3.324519 1.119657 l 0.327284,-0.0689 c 0.465088,-0.0861 0.241157,-0.89572 -0.137804,-0.84405 -0.206706,0.0344 -0.499539,-0.17225 -0.8785,-0.63734 -0.585666,-0.62012 -1.016304,-1.24024 -1.274686,-1.8259 l -5.047068,-20.23995 c -0.0689,-0.25838 -0.120579,-0.58567 -0.120579,-0.98185 -0.01723,-0.34451 0.430638,-2.32545 1.016304,-2.23932 0.206706,0.0344 0.275608,-0.10335 0.206706,-0.39618 -0.0689,-0.27561 -0.223931,-0.43064 -0.465088,-0.46509 l -0.361735,-0.0689 H 63.348977 l -0.361735,0.0689 c -0.241157,0.0344 -0.396186,0.18948 -0.465088,0.46509 -0.0689,0.29283 0,0.43063 0.206706,0.39618 0.602892,-0.0861 1.016303,1.80868 1.033529,2.23932 z m 6.907421,12.45402 h -5.219323 l 2.566598,-10.45587 z m -2.428794,-12.12674 c -0.137804,-0.17226 -0.103353,-0.25838 0.103353,-0.25838 0.34451,0 0.930176,0.89572 1.016304,1.17133 l 2.790529,11.21379 H 71.634437 L 68.91281,246.59858 c -0.292833,-0.68902 -0.206706,-0.53399 -0.671794,-1.11966 z m 5.029843,16.63982 1.033529,4.20302 c 0,0.24116 -0.241157,1.29191 -0.327284,1.41249 -0.05168,0.12058 -0.34451,0.62012 -0.396186,0.10335 -0.03445,-0.18948 0.258382,-1.20578 0.258382,-1.39526 l -1.085206,-4.3236 z m -14.589989,5.42603 c 0.430637,-0.56844 0.37896,-0.41341 0.654568,-1.11966 l 5.271,-21.2218 c 0,-0.18948 -0.275608,-1.18856 -0.241157,-1.41249 0.05168,-0.46509 0.327284,0.0172 0.378961,0.10335 0.08613,0.15503 0.34451,1.18856 0.34451,1.41249 l -5.288226,21.32516 c -0.08613,0.29283 -0.689019,1.17133 -1.033529,1.17133 -0.18948,0 -0.223931,-0.0861 -0.08613,-0.25838 z"
     style="font-size:35.2778px;-inkscape-font-specification:'Festival Budaya XXXI, Normal';text-align:center;text-anchor:middle;stroke-width:0.503086"
     id="path918" />
  <path
     d="m 92.167218,241.98215 h -7.613666 l -0.34451,0.0689 c -0.447863,0.0689 -0.413412,0.93017 0.01723,0.86127 0.206706,-0.0344 0.482314,0.17226 0.826824,0.62012 0.53399,0.7407 0.8785,1.36081 1.016304,1.86035 v 18.32792 c 0,1.8259 -0.34451,2.94556 -1.343589,4.09967 -0.37896,0.44786 -0.72347,0.67179 -0.999078,0.67179 -0.275608,0 -0.413412,0.17226 -0.413412,0.55122 0,0.37896 0.206706,0.58567 0.637343,0.62012 l 0.637343,0.0689 h 7.114127 l 0.637344,-0.0517 c 0.413411,-0.0344 0.637343,-0.25838 0.637343,-0.63734 -0.01723,-0.36174 -0.172255,-0.55122 -0.447863,-0.55122 -0.275608,0 -0.602892,-0.22393 -0.981853,-0.67179 -0.447863,-0.49954 -0.775147,-1.05076 -0.981853,-1.65365 l 0.01723,-15.10675 8.716097,17.57 c 0.206706,0.39618 0.361735,0.67179 0.499539,0.84405 0.120579,0.17225 0.361732,0.2756 0.723472,0.2756 h 7.61367 l 0.34451,-0.0689 c 0.43063,-0.0861 0.37896,-0.91295 -0.0345,-0.84405 -0.53399,0.10336 -1.46416,-1.56752 -1.63642,-1.99815 l 0.0172,-20.77394 c 0.17225,-0.77515 0.55121,-1.49862 1.13688,-2.17042 0.37896,-0.41341 0.70625,-0.63734 0.98185,-0.63734 0.27561,0 0.43064,-0.18948 0.43064,-0.56844 0,-0.37896 -0.22393,-0.58567 -0.63734,-0.63734 l -0.62012,-0.0689 h -7.13135 l -0.63735,0.0689 c -0.413408,0.0517 -0.620114,0.25838 -0.620114,0.62012 0,0.37896 0.137804,0.56844 0.413414,0.56844 0.27561,0 0.62012,0.22393 0.99908,0.65456 0.58566,0.72348 0.98185,1.51585 1.17133,2.34267 v 14.41774 L 93.3041,242.51614 c -0.18948,-0.36174 -0.568441,-0.53399 -1.136882,-0.53399 z m -1.446941,7.78592 c -0.206706,-0.10336 -0.189481,-0.20671 0.05168,-0.27561 0.310059,-0.0861 1.102431,0.72347 1.240235,0.93018 l 8.647188,17.53554 c 0.0345,0.17226 0.13781,0.29284 0.31006,0.37896 0.17226,0.0861 0.18948,0.20671 0.0517,0.34451 -0.24116,0.25839 -0.79237,-0.41341 -0.8096,-0.51676 l -8.595514,-17.44942 c -0.430637,-0.62012 -0.34451,-0.48232 -0.895725,-0.9474 z m -4.271922,-5.83944 c -0.120578,-0.18948 -0.0689,-0.25839 0.15503,-0.22394 0.275608,0.0689 0.671794,0.99908 0.706245,1.37804 v 21.18736 c -0.137804,0.49953 -0.292834,0.75792 -0.447863,0.77514 -0.155029,0 -0.172255,-0.25838 -0.03445,-0.77514 v -21.084 c -0.120578,-0.77515 -0.103353,-0.62012 -0.378962,-1.25746 z m 16.243635,0.44786 c -0.0689,-0.17226 -0.0172,-0.25838 0.17226,-0.22393 0.25838,0.0861 0.67179,1.03353 0.70624,1.37804 l -0.0172,15.67519 c -0.13781,0.48231 -0.27561,0.7407 -0.43064,0.75792 -0.15503,0.0172 -0.17226,-0.24115 -0.0517,-0.75792 v -15.58907 c -0.12058,-0.75792 -0.10335,-0.60289 -0.37896,-1.24023 z"
     style="font-size:35.2778px;-inkscape-font-specification:'Festival Budaya XXXI, Normal';text-align:center;text-anchor:middle;stroke-width:0.503086"
     id="path920" />
  <path
     d="m 121.22661,242.0166 -0.0689,-0.0172 h -0.2067 l -8.30269,-0.0172 -0.34451,0.0689 c -0.39619,0.0861 -0.37896,0.9474 0.0345,0.86127 0.20671,-0.0344 0.46509,0.17226 0.8096,0.62012 0.53399,0.72347 0.8785,1.34359 1.0163,1.86035 v 18.3107 c 0,1.8259 -0.31006,2.94556 -1.32636,4.11689 -0.37896,0.44786 -0.70625,0.65457 -0.98185,0.65457 -0.27561,0 -0.43064,0.18948 -0.43064,0.55121 0,0.37896 0.22393,0.6029 0.63734,0.63735 l 0.63735,0.0517 h 8.25101 c 0.17225,0.0172 0.22393,0.0172 0.22393,0.0172 h 0.2756 c 0.46509,0 0.10336,0.0172 0.55122,0.0172 h 1.36081 c 0.34451,0 0.98186,-0.0172 1.94648,-0.0517 6.33898,-0.25839 10.11137,-3.16949 12.07507,-8.02708 1.22301,-2.98001 1.37804,-6.35621 0.39619,-9.5946 -0.77515,-2.53214 -2.06706,-4.89204 -3.65181,-6.32175 -1.68809,-1.49862 -3.92741,-2.68718 -6.4251,-3.23839 -1.757,-0.34451 -4.3925,-0.49954 -6.28731,-0.49954 z m 0.27561,4.16856 2.61828,0.13781 c 1.757,0.0861 3.25561,0.8785 4.5303,2.37712 0.82682,0.99907 1.22301,1.61919 1.80868,2.68717 0.8785,1.65365 1.24023,3.85851 0.91295,6.27008 -0.65457,5.18487 -2.84221,7.32083 -8.37159,7.51031 -0.99908,0.0517 -0.82682,0.0517 -1.72255,0.0517 h -0.86127 v -19.03417 h 1.0163 z m -7.18303,-2.61827 c -0.0861,-0.17225 -0.0345,-0.24116 0.15503,-0.22393 0.29283,0.0861 0.99908,1.34359 1.03353,1.6881 v 21.2907 c -0.1378,0.49954 -0.27561,0.75792 -0.43064,0.77515 -0.15503,0.0172 -0.17225,-0.24116 -0.0689,-0.77515 v -21.18735 c -0.0861,-0.72347 -0.41341,-0.9474 -0.68902,-1.56752 z m 13.28085,3.06614 c -0.37896,-0.27561 -0.24115,-0.27561 0.43064,0 0.6718,0.31006 1.29191,0.72347 1.86035,1.24023 1.15411,1.17134 2.22209,2.94556 2.84221,4.84037 0.89573,2.80775 0.34451,7.3036 -0.89573,9.30176 -0.67179,1.06798 -1.92925,2.34267 -2.73885,2.89388 -0.22393,0.15503 -0.36173,0.20671 -0.41341,0.15503 -0.17226,-0.15503 1.757,-1.94648 1.96371,-2.20486 1.34358,-1.5503 1.99815,-4.23747 1.99815,-7.01078 0,-1.42971 -0.25838,-2.80775 -0.8096,-4.11689 -0.75792,-1.80867 -1.94648,-3.4451 -3.42787,-4.49585 -0.37896,-0.27561 -0.65457,-0.46509 -0.8096,-0.60289 z"
     style="font-size:35.2778px;-inkscape-font-specification:'Festival Budaya XXXI, Normal';text-align:center;text-anchor:middle;stroke-width:0.503086"
     id="path922" />
  <path
     d="m 145.49733,245.15164 -5.3399,21.41128 c -0.25839,0.51676 -0.65457,1.05075 -1.18856,1.63642 -0.41341,0.46509 -0.70625,0.67179 -0.89573,0.63734 -0.18948,-0.0344 -0.31006,0.0861 -0.37896,0.36174 -0.0861,0.46509 0.22393,0.48231 0.56844,0.55121 h 7.25193 l 0.37896,-0.0689 c 0.24116,-0.0344 0.39619,-0.2067 0.46509,-0.48231 0.0689,-0.27561 0,-0.39619 -0.2067,-0.36174 -0.20671,0.0344 -0.41341,-0.17225 -0.6029,-0.63734 -0.36173,-0.79237 -0.56844,-1.44694 -0.37896,-2.32544 l 0.91296,-3.75516 h 7.45863 l 0.98185,3.80684 c 0.0345,0.25838 0.0517,0.56844 0.0172,0.93017 -0.0344,0.39619 -0.48231,2.08429 -1.0163,1.98093 -0.20671,-0.0344 -0.27561,0.0861 -0.20671,0.36174 0.0689,0.27561 0.22393,0.44786 0.46509,0.48231 l 0.36173,0.0689 h 4.47863 3.32452 1.11966 l 0.32728,-0.0689 c 0.46509,-0.0861 0.24116,-0.89572 -0.1378,-0.84405 -0.20671,0.0344 -0.49954,-0.17225 -0.8785,-0.63734 -0.58567,-0.62012 -1.01631,-1.24024 -1.27469,-1.8259 l -5.04707,-20.23995 c -0.0689,-0.25838 -0.12058,-0.58567 -0.12058,-0.98185 -0.0172,-0.34451 0.43064,-2.32545 1.01631,-2.23932 0.2067,0.0344 0.27561,-0.10335 0.2067,-0.39618 -0.0689,-0.27561 -0.22393,-0.43064 -0.46508,-0.46509 l -0.36174,-0.0689 h -11.24824 l -0.36174,0.0689 c -0.24116,0.0344 -0.39618,0.18948 -0.46509,0.46509 -0.0689,0.29283 0,0.43063 0.20671,0.39618 0.60289,-0.0861 1.0163,1.80868 1.03353,2.23932 z m 6.90742,12.45402 h -5.21932 l 2.56659,-10.45587 z m -2.42879,-12.12674 c -0.13781,-0.17226 -0.10336,-0.25838 0.10335,-0.25838 0.34451,0 0.93018,0.89572 1.0163,1.17133 l 2.79053,11.21379 h -0.51676 l -2.72163,-11.00708 c -0.29283,-0.68902 -0.20671,-0.53399 -0.67179,-1.11966 z m 5.02984,16.63982 1.03353,4.20302 c 0,0.24116 -0.24116,1.29191 -0.32729,1.41249 -0.0517,0.12058 -0.34451,0.62012 -0.39618,0.10335 -0.0344,-0.18948 0.25838,-1.20578 0.25838,-1.39526 l -1.08521,-4.3236 z m -14.58999,5.42603 c 0.43064,-0.56844 0.37896,-0.41341 0.65457,-1.11966 l 5.271,-21.2218 c 0,-0.18948 -0.27561,-1.18856 -0.24116,-1.41249 0.0517,-0.46509 0.32728,0.0172 0.37896,0.10335 0.0861,0.15503 0.34451,1.18856 0.34451,1.41249 l -5.28822,21.32516 c -0.0861,0.29283 -0.68902,1.17133 -1.03353,1.17133 -0.18948,0 -0.22393,-0.0861 -0.0861,-0.25838 z"
     style="font-size:35.2778px;-inkscape-font-specification:'Festival Budaya XXXI, Normal';text-align:center;text-anchor:middle;stroke-width:0.503086"
     id="path924" />
  <path
     d="m 175.83142,258.46694 c 0.31006,0.15503 0.79237,0.27561 0.99908,0.49954 0.58566,0.65457 1.72255,2.44602 3.39342,5.37435 1.6881,2.92833 3.84128,5.99447 6.49401,9.23286 1.32636,1.6192 3.03168,3.25562 5.11597,4.89204 2.10151,1.63642 4.82314,2.46325 8.16488,2.48047 3.16949,0.0172 5.82222,-0.55121 7.99263,-1.72255 2.17041,-1.15411 3.82406,-2.39434 4.94371,-3.7207 1.13689,-1.32637 1.72255,-2.48047 1.79145,-3.46233 0.0689,-0.96462 -0.41341,-1.25746 -1.44694,-0.86127 -3.20394,1.18856 -5.80499,2.03261 -7.78592,2.53215 -1.99816,0.49954 -4.20302,0.60289 -6.64904,0.29283 -3.66903,-0.44786 -6.89019,-2.37712 -9.6635,-5.78776 -2.7733,-3.41065 -5.15042,-6.7524 -7.11412,-10.02524 0.51676,-0.12058 0.67179,-0.48231 1.1541,-0.68902 0.91296,-0.37896 1.84313,-1.0852 2.79053,-2.08428 0.93018,-0.99908 1.51585,-1.99816 1.72255,-3.01446 0.27561,-1.42972 0.24116,-2.80776 -0.1378,-4.1169 -0.65457,-2.25653 -2.23931,-4.42695 -4.44418,-5.42602 -1.51584,-0.6718 -2.73885,-0.82683 -4.5992,-0.8785 0,0 0,-0.0172 0,-0.0172 0,0 -7.87205,0.0172 -7.87205,0.0172 h -4.40973 l -0.34451,0.0689 c -0.43063,0.0689 -0.37896,0.93017 0.0172,0.84405 0.2067,-0.0345 0.46509,0.17225 0.8096,0.62011 0.51676,0.70625 0.86127,1.32637 1.03353,1.86036 v 18.56907 l -0.0172,-0.2067 c 0,1.8259 -0.31006,2.94556 -1.32636,4.09966 -0.37896,0.44787 -0.70625,0.6718 -0.98185,0.6718 -0.27561,0 -0.43064,0.17225 -0.43064,0.55121 0,0.37896 0.22393,0.58567 0.63734,0.62012 l 0.63734,0.0689 h 8.95726 l 0.63734,-0.0689 c 0.41341,-0.0344 0.62012,-0.25838 0.62012,-0.63734 0,-0.36174 -0.1378,-0.55122 -0.41341,-0.55122 -0.27561,0 -0.62012,-0.2067 -0.99908,-0.65457 -0.51677,-0.58566 -0.8785,-1.25746 -1.08521,-2.01538 v -7.35528 h 0.49954 c 0.32729,0 0.99908,0.0344 1.30914,0 z m -1.80868,-3.78961 -0.0172,-8.1132 h 2.30821 c 3.01446,0 5.70164,0.99907 5.8739,3.66902 0.10335,2.23932 -1.30914,3.89297 -3.22117,4.27193 -0.75792,0.17225 -2.29099,0.17225 -3.18672,0.17225 z M 168.2522,243.8425 c -0.10335,-0.20671 -0.0517,-0.29284 0.15503,-0.22393 0.27561,0.10335 0.68902,1.03353 0.70625,1.37804 l 0.0172,21.11845 c -0.1378,0.49953 -0.2756,0.75792 -0.43063,0.77514 -0.13781,0.0172 -0.15503,-0.24115 -0.0517,-0.77514 l -0.0172,-21.03233 c -0.12058,-0.74069 -0.0861,-0.58566 -0.37897,-1.24023 z m 13.14305,3.18671 c -0.31006,-0.2067 -0.43063,-0.34451 -0.34451,-0.39618 0.24116,-0.0689 0.58567,0.0861 1.01631,0.44786 0.86127,0.7407 1.46416,2.20486 1.42971,3.84128 0,1.67088 -0.68902,3.10059 -1.73977,3.60013 -0.29284,0.17226 -0.51677,0.20671 -0.68902,0.10335 -0.0689,-0.0172 0.68902,-0.58566 0.86127,-0.72347 0.68902,-0.53399 0.96463,-1.37804 1.08521,-2.60104 0.1378,-1.96371 -0.53399,-3.39343 -1.6192,-4.27193 z m -3.42787,11.64443 c 0.17226,-0.2067 0.60289,0.25839 1.25746,1.36082 0.65457,1.11965 1.03353,1.757 1.13688,1.91203 l 0.32729,0.55121 c 1.56752,2.60105 3.30729,5.271 5.18487,7.61367 1.70532,2.11873 4.13412,5.09874 6.35621,6.58014 l 1.13688,0.75792 c 0.75792,0.48231 1.9637,0.91295 2.87665,1.34359 0.10336,0.0517 2.11874,0.68902 2.08429,0.77514 -0.24116,0.91295 -4.97817,-1.55029 -4.97817,-1.55029 -0.93017,-0.60289 -1.79145,-1.08521 -2.66995,-1.8259 -0.84405,-0.72347 -1.757,-1.63642 -2.72163,-2.73886 -1.79145,-2.04983 -3.41064,-4.03076 -4.84036,-6.11504 -1.03353,-1.49862 -1.91203,-3.04892 -2.79053,-4.56476 l -0.34451,-0.55121 c -0.0172,-0.0345 -2.20486,-3.34175 -2.01538,-3.54846 z"
     style="font-size:35.2778px;-inkscape-font-specification:'Festival Budaya XXXI, Normal';text-align:center;text-anchor:middle;stroke-width:0.503086"
     id="path926" />
  <path
     d="m 201.44571,242.0166 -0.0689,-0.0172 h -0.2067 l -8.30269,-0.0172 -0.34451,0.0689 c -0.39619,0.0861 -0.37896,0.9474 0.0344,0.86127 0.20671,-0.0344 0.46509,0.17226 0.8096,0.62012 0.53399,0.72347 0.8785,1.34359 1.0163,1.86035 v 18.3107 c 0,1.8259 -0.31006,2.94556 -1.32636,4.11689 -0.37896,0.44786 -0.70624,0.65457 -0.98185,0.65457 -0.27561,0 -0.43064,0.18948 -0.43064,0.55121 0,0.37896 0.22393,0.6029 0.63734,0.63735 l 0.63735,0.0517 h 8.25101 c 0.17225,0.0172 0.22393,0.0172 0.22393,0.0172 h 0.27561 c 0.46508,0 0.10335,0.0172 0.55121,0.0172 h 1.36081 c 0.34451,0 0.98186,-0.0172 1.94648,-0.0517 6.33898,-0.25839 10.11137,-3.16949 12.07507,-8.02708 1.22301,-2.98001 1.37804,-6.35621 0.39619,-9.5946 -0.77515,-2.53214 -2.06706,-4.89204 -3.6518,-6.32175 -1.6881,-1.49862 -3.92742,-2.68718 -6.42511,-3.23839 -1.757,-0.34451 -4.3925,-0.49954 -6.28731,-0.49954 z m 0.27561,4.16856 2.61828,0.13781 c 1.757,0.0861 3.25561,0.8785 4.5303,2.37712 0.82682,0.99907 1.22301,1.61919 1.80868,2.68717 0.8785,1.65365 1.24023,3.85851 0.91295,6.27008 -0.65457,5.18487 -2.84221,7.32083 -8.37159,7.51031 -0.99908,0.0517 -0.82682,0.0517 -1.72255,0.0517 h -0.86127 v -19.03417 h 1.0163 z m -7.18303,-2.61827 c -0.0861,-0.17225 -0.0344,-0.24116 0.15503,-0.22393 0.29284,0.0861 0.99908,1.34359 1.03353,1.6881 v 21.2907 c -0.1378,0.49954 -0.27561,0.75792 -0.43064,0.77515 -0.15502,0.0172 -0.17225,-0.24116 -0.0689,-0.77515 v -21.18735 c -0.0861,-0.72347 -0.41341,-0.9474 -0.68902,-1.56752 z m 13.28086,3.06614 c -0.37897,-0.27561 -0.24116,-0.27561 0.43063,0 0.6718,0.31006 1.29191,0.72347 1.86036,1.24023 1.1541,1.17134 2.22208,2.94556 2.8422,4.84037 0.89573,2.80775 0.34451,7.3036 -0.89572,9.30176 -0.6718,1.06798 -1.92926,2.34267 -2.73886,2.89388 -0.22393,0.15503 -0.36173,0.20671 -0.41341,0.15503 -0.17225,-0.15503 1.757,-1.94648 1.96371,-2.20486 1.34358,-1.5503 1.99815,-4.23747 1.99815,-7.01078 0,-1.42971 -0.25838,-2.80775 -0.80959,-4.11689 -0.75793,-1.80867 -1.94648,-3.4451 -3.42788,-4.49585 -0.37896,-0.27561 -0.65457,-0.46509 -0.80959,-0.60289 z"
     style="font-size:35.2778px;-inkscape-font-specification:'Festival Budaya XXXI, Normal';text-align:center;text-anchor:middle;stroke-width:0.503086"
     id="path928" />
  <path
     d="m 76.535088,315.41583 c -0.206706,-0.0345 -0.361735,-0.13781 -0.499539,-0.27561 v -17.07046 c 0.137804,-0.44786 0.430637,-0.98185 0.912951,-1.63642 0.292833,-0.39619 0.53399,-0.58567 0.706245,-0.55122 0.172255,0.0344 0.275608,-0.0861 0.310059,-0.32728 0.01722,-0.41341 -0.258382,-0.43064 -0.585667,-0.48232 h -8.216558 l -0.310059,0.0517 c -0.378961,0.0689 -0.34451,0.8096 0.01723,0.75792 0.172255,-0.0344 0.413411,0.15503 0.72347,0.55122 0.482314,0.65457 0.775147,1.20578 0.912951,1.63642 v 17.53555 c -0.0689,0.8785 -0.361735,1.61919 -0.861274,2.23931 -0.34451,0.41341 -0.654569,0.62012 -0.895726,0.62012 -0.241157,0 -0.361735,0.17225 -0.361735,0.51676 0,0.34451 0.172255,0.55122 0.551216,0.58567 l 0.568441,0.0689 H 84.56217 l 0.844049,-4.96094 -0.0689,-0.31006 c -0.08613,-0.41341 -0.8785,-0.36173 -0.809598,0.0344 0.03445,0.17226 -0.155029,0.43064 -0.568441,0.7407 -0.120578,0.10335 -0.413412,0.20671 -0.53399,0.29283 z M 70.95403,296.86398 c -0.103353,-0.17226 -0.05168,-0.24116 0.137804,-0.20671 0.241157,0.0689 0.585666,0.8785 0.620117,1.22301 v 18.74133 c -0.120578,0.44786 -0.241157,0.6718 -0.37896,0.68902 -0.137804,0.0172 -0.15503,-0.2067 -0.05168,-0.68902 v -18.67243 c -0.0689,-0.36173 -0.172255,-0.72347 -0.327284,-1.0852 z"
     style="font-size:35.2778px;-inkscape-font-specification:'Festival Budaya XXXI, Normal';text-align:center;text-anchor:middle;stroke-width:0.503086"
     id="path930" />
  <path
     d="m 92.98543,297.86305 -4.719784,18.96527 c -0.172255,0.34451 -1.257461,2.11873 -1.843127,2.01538 -0.172255,-0.0344 -0.275608,0.0689 -0.327285,0.31006 -0.0689,0.41341 0.206706,0.43064 0.516765,0.48231 h 6.407882 c 0.396186,-0.0689 0.637343,-0.0861 0.740696,-0.48231 0.0689,-0.24116 0,-0.34451 -0.18948,-0.31006 -0.172255,0.0344 -0.361736,-0.15503 -0.533991,-0.56844 -0.310058,-0.72347 -0.482313,-1.25746 -0.327284,-2.06706 l 0.809598,-3.32452 h 6.61459 l 0.84405,3.35897 c 0.0345,0.24116 0.0517,0.51677 0.0172,0.82682 -0.0172,0.37896 -0.39618,1.84313 -0.8785,1.77423 -0.189478,-0.0344 -0.25838,0.0689 -0.189478,0.31006 0.103348,0.39618 0.344508,0.41341 0.723468,0.48231 h 3.96187 2.92833 0.99908 l 0.29283,-0.0517 c 0.41341,-0.0861 0.20671,-0.79238 -0.1378,-0.7407 -0.17226,0.0344 -0.43064,-0.15503 -0.77515,-0.55122 -0.53399,-0.58566 -0.91295,-1.13688 -1.11966,-1.61919 l -4.47862,-17.93174 c -0.0517,-0.22393 -0.0861,-0.51676 -0.0861,-0.8785 0,-0.31006 0.37896,-2.06705 0.89572,-1.98093 0.18948,0.0344 0.25839,-0.0861 0.18948,-0.34451 -0.10335,-0.37896 -0.34451,-0.39618 -0.74069,-0.48231 h -9.93911 c -0.378961,0.0861 -0.637343,0.10335 -0.740696,0.48231 -0.0689,0.25839 0,0.37896 0.189481,0.34451 0.53399,-0.0861 0.878499,1.53307 0.895725,1.98093 z m 6.132274,11.02432 h -4.616431 l 2.256539,-9.25009 z m -2.153186,-10.73148 c -0.137804,-0.13781 -0.120578,-0.22393 0.08613,-0.22393 0.292834,0 0.826824,0.79237 0.895726,1.03353 l 2.463246,9.92188 h -0.430638 l -2.428794,-9.74963 c -0.137804,-0.31006 -0.34451,-0.63734 -0.585667,-0.98185 z m 4.444172,14.72779 0.93018,3.72071 c 0,0.24115 -0.22393,1.13688 -0.31006,1.25746 -0.0517,0.10335 -0.29283,0.55121 -0.34451,0.0861 -0.0172,-0.15503 0.22393,-1.06798 0.22393,-1.24023 l -0.9474,-3.82406 z m -12.574603,4.34082 c 0.0689,-0.0689 0.15503,-0.25838 0.258382,-0.53399 l 4.650882,-18.77578 c 0,-0.27561 -0.516764,-2.03261 0.137804,-1.17133 0.05168,0.15503 0.292834,1.06798 0.292834,1.27468 l -4.685333,18.86191 c -0.0689,0.25839 -0.602892,1.03353 -0.895726,1.03353 -0.37896,-0.0517 0.241157,-0.67179 0.241157,-0.68902 z"
     style="font-size:35.2778px;-inkscape-font-specification:'Festival Budaya XXXI, Normal';text-align:center;text-anchor:middle;stroke-width:0.503086"
     id="path932" />
  <path
     d="m 119.75384,295.0553 c -0.12058,0 -0.25838,0.0172 -0.41341,0.0172 h -0.9474 v -0.0172 h -6.87297 l -0.31006,0.0689 c -0.36174,0.0689 -0.32729,0.8096 0.0172,0.75792 0.17226,-0.0344 0.41341,0.15503 0.72347,0.55122 0.46509,0.62012 0.77515,1.15411 0.91295,1.63642 v 16.22641 c 0,1.60197 -0.29283,2.6355 -1.17133,3.63458 -0.34451,0.39618 -0.63734,0.58567 -0.8785,0.58567 -0.25838,0 -0.37896,0.17225 -0.37896,0.49953 0,0.32729 0.18948,0.51677 0.56844,0.55122 l 0.55122,0.0689 h 9.33621 c 0.0861,0 0.41341,0 0.93018,-0.0172 0.55121,0 1.30914,0.0172 2.29099,0.0344 2.96278,0.0517 4.71978,-0.32729 6.3562,-1.94648 1.53307,-1.51585 2.87666,-4.09967 2.20487,-7.26916 -0.49954,-2.54937 -1.99816,-4.06521 -4.16857,-5.04707 0.82682,-1.17133 1.24023,-2.41157 1.25746,-3.68625 0,-1.58475 -0.89573,-3.29007 -1.67087,-4.1858 -1.4814,-1.61919 -3.92741,-2.44602 -6.9591,-2.44602 h -0.0172 c -0.32728,0 -0.77514,-0.0172 -1.36081,-0.0172 z m 1.53307,9.37067 h -2.89388 V 298.776 h 1.80867 c 0.7407,0 1.6192,0.0172 2.23932,0.13781 1.17133,0.25838 2.23931,1.36081 2.39434,2.48047 0.18948,2.08428 -1.29191,3.03169 -3.42787,3.03169 z m 1.58474,3.39342 c 1.87758,0 3.16949,0.32728 3.91019,1.41249 0.60289,0.8785 0.8785,1.86035 0.82682,2.94556 -0.1378,2.60104 -2.72162,3.46232 -5.5466,3.46232 -0.24116,0 -0.37897,0 -0.36174,0 h -3.30729 v -7.82037 h 3.80683 z m -9.76685,-11.12767 c -0.0689,-0.1378 -0.0172,-0.20671 0.13781,-0.18948 0.24115,0.0689 0.86127,1.15411 0.87849,1.42972 v 18.05231 c -0.10335,0.43064 -0.24115,0.65457 -0.37896,0.65457 -0.1378,0.0172 -0.15503,-0.20671 -0.0517,-0.65457 v -17.96619 c -0.0689,-0.60289 -0.36174,-0.80959 -0.58567,-1.32636 z m 11.11044,2.23931 c -0.27561,-0.15503 -0.36173,-0.25838 -0.27561,-0.29283 0.22394,-0.0344 0.49954,0.0861 0.84405,0.32729 0.70625,0.55121 1.18856,1.60197 1.18856,2.87665 0,1.25746 -0.60289,2.34267 -1.44694,2.7044 -0.43064,0.20671 -0.86127,0.15503 -0.29283,-0.17225 0.84405,-0.51677 1.20578,-1.03353 1.32636,-2.23931 0.1378,-1.42972 -0.43064,-2.61828 -1.34359,-3.20395 z m 2.18764,8.94003 c 0.24116,-0.0689 0.56844,0.0689 0.98185,0.41341 0.84405,0.7407 1.39527,2.15319 1.39527,3.73794 0,1.1541 -0.29284,2.04983 -0.79238,2.66995 -0.29283,0.43063 -0.9474,1.18856 -1.56752,0.93017 -0.0861,-0.0344 0.65457,-0.56844 0.82683,-0.72347 0.91295,-0.72347 1.34359,-2.72162 0.89572,-4.3236 -0.17225,-0.67179 -0.56844,-1.60197 -1.0852,-2.0326 -0.15503,-0.13781 -0.84405,-0.6029 -0.65457,-0.6718 z"
     style="font-size:35.2778px;-inkscape-font-specification:'Festival Budaya XXXI, Normal';text-align:center;text-anchor:middle;stroke-width:0.503086"
     id="path934" />
  <path
     d="m 136.65204,295.07252 h -1.32636 l -0.32728,0.0689 c -0.39619,0.0689 -0.32729,0.80959 0.0344,0.75792 0.17225,-0.0345 0.41341,0.15503 0.72347,0.53399 0.46509,0.65457 0.75792,1.20578 0.8785,1.65365 v 0.96462 l 0.0172,5.39158 v 9.87021 c 0,1.60197 -0.29283,2.61827 -1.17133,3.63457 -0.34451,0.39619 -0.63734,0.58567 -0.8785,0.58567 -0.24116,0 -0.37896,0.17226 -0.37896,0.48231 0,0.34451 0.18948,0.53399 0.56844,0.56845 l 0.55122,0.0517 h 6.83851 l 9.92189,-0.0172 0.86127,-4.70256 -0.0517,-0.29284 c -0.0689,-0.37896 -0.89572,-0.34451 -0.80959,0.0172 0.0517,0.34451 -0.72347,0.8096 -1.11966,0.99908 h -8.785 v -7.56199 h 6.58014 l -0.37896,-3.63458 h -6.20118 v -5.39158 h 8.06153 c 0.31006,0.18948 0.96463,0.75792 0.93018,0.99908 -0.0345,0.17226 0.0861,0.27561 0.34451,0.29283 0.39618,0.0517 0.41341,-0.24115 0.48231,-0.58566 l -0.49954,-4.70256 h -12.28177 z m 0.49954,1.70533 c -0.0689,-0.15503 -0.0344,-0.22393 0.13781,-0.20671 0.22393,0.10336 0.58566,0.89573 0.62011,1.20579 v 18.37959 c -0.10335,0.44787 -0.22393,0.6718 -0.36173,0.68902 -0.13781,0.0172 -0.15503,-0.2067 -0.0517,-0.68902 l -0.0172,-18.29347 c -0.12058,-0.63734 -0.12058,-0.51676 -0.32729,-1.0852 z"
     style="font-size:35.2778px;-inkscape-font-specification:'Festival Budaya XXXI, Normal';text-align:center;text-anchor:middle;stroke-width:0.503086"
     id="path936" />
  <path
     d="m 162.67976,315.41583 c -0.20671,-0.0345 -0.36174,-0.13781 -0.49954,-0.27561 v -17.07046 c 0.1378,-0.44786 0.43063,-0.98185 0.91295,-1.63642 0.29283,-0.39619 0.53399,-0.58567 0.70624,-0.55122 0.17226,0.0344 0.27561,-0.0861 0.31006,-0.32728 0.0172,-0.41341 -0.25838,-0.43064 -0.58566,-0.48232 h -8.21656 l -0.31006,0.0517 c -0.37896,0.0689 -0.34451,0.8096 0.0172,0.75792 0.17226,-0.0344 0.41342,0.15503 0.72347,0.55122 0.48232,0.65457 0.77515,1.20578 0.91296,1.63642 v 17.53555 c -0.0689,0.8785 -0.36174,1.61919 -0.86128,2.23931 -0.34451,0.41341 -0.65457,0.62012 -0.89572,0.62012 -0.24116,0 -0.36174,0.17225 -0.36174,0.51676 0,0.34451 0.17226,0.55122 0.55122,0.58567 l 0.56844,0.0689 h 15.05507 l 0.84405,-4.96094 -0.0689,-0.31006 c -0.0861,-0.41341 -0.8785,-0.36173 -0.8096,0.0344 0.0344,0.17226 -0.15503,0.43064 -0.56844,0.7407 -0.12058,0.10335 -0.41341,0.20671 -0.53399,0.29283 z m -5.58106,-18.55185 c -0.10335,-0.17226 -0.0517,-0.24116 0.1378,-0.20671 0.24116,0.0689 0.58567,0.8785 0.62012,1.22301 v 18.74133 c -0.12058,0.44786 -0.24116,0.6718 -0.37896,0.68902 -0.1378,0.0172 -0.15503,-0.2067 -0.0517,-0.68902 v -18.67243 c -0.0689,-0.36173 -0.17225,-0.72347 -0.32728,-1.0852 z"
     style="font-size:35.2778px;-inkscape-font-specification:'Festival Budaya XXXI, Normal';text-align:center;text-anchor:middle;stroke-width:0.503086"
     id="path938" />
</svg>
